<svg width="22" height="21" viewBox="0 0 22 21" fill="none" xmlns="http://www.w3.org/2000/svg">
<path d="M16.0996 9.84375H18.3719C18.4957 9.84402 18.6171 9.81035 18.7223 9.74655C18.8275 9.68275 18.9124 9.59139 18.9672 9.48281L20.51 6.46406C20.5865 6.31288 20.6013 6.13891 20.5515 5.97744C20.5016 5.81597 20.3909 5.67908 20.2417 5.59453L16.0996 3.28125" stroke="#4F4F4F" stroke-width="1.5" stroke-linecap="round" stroke-linejoin="round"/>
<path d="M5.36559 9.84375H3.0933C2.96951 9.84402 2.84812 9.81035 2.74289 9.74655C2.63767 9.68275 2.55282 9.59139 2.49798 9.48281L0.955166 6.46406C0.878729 6.31288 0.863922 6.13891 0.913748 5.97744C0.963574 5.81597 1.0743 5.67908 1.22348 5.59453L5.36559 3.28125" stroke="#4F4F4F" stroke-width="1.5" stroke-linecap="round" stroke-linejoin="round"/>
<path d="M5.36719 3.28125H8.05034C8.05034 3.97744 8.33302 4.64512 8.83621 5.13741C9.3394 5.62969 10.0219 5.90625 10.7335 5.90625C11.4451 5.90625 12.1276 5.62969 12.6308 5.13741C13.1339 4.64512 13.4166 3.97744 13.4166 3.28125H16.0998M16.0998 9.84375V17.0625C16.0998 17.2365 16.0291 17.4035 15.9033 17.5265C15.7775 17.6496 15.6069 17.7188 15.429 17.7188H6.03797C5.86007 17.7188 5.68945 17.6496 5.56366 17.5265C5.43786 17.4035 5.36719 17.2365 5.36719 17.0625V9.84375" stroke="#4F4F4F" stroke-width="1.5" stroke-linecap="round" stroke-linejoin="round"/>
</svg>
