<svg width="109" height="116" viewBox="0 0 109 116" fill="none" xmlns="http://www.w3.org/2000/svg">
<ellipse cx="26.4352" cy="28.3328" rx="26.4352" ry="28.3328" transform="matrix(0.98486 0.17335 -0.208898 0.977937 56.4492 0.5)" fill="#A397FF"/>
<line x1="0.5" y1="-0.5" x2="23.129" y2="-0.5" transform="matrix(-0.0841257 0.996455 -0.994278 -0.106821 56.5391 91.8555)" stroke="#3D3D3D" stroke-linecap="round"/>
<path d="M82.5742 58.9805L55.0487 114.839" stroke="#3D3D3D" stroke-linecap="round"/>
<path d="M83.3751 61.9004C83.3751 77.0882 74.4623 89.4004 60.3061 89.4004C46.1498 89.4004 34.6738 77.0882 34.6738 61.9004C34.6738 46.7126 43.5865 34.4004 57.7428 34.4004C71.8991 34.4004 83.3751 46.7126 83.3751 61.9004Z" fill="#FB8CE9"/>
<path d="M37.3045 64.1425L55.0478 114.839" stroke="#3D3D3D" stroke-linecap="round"/>
<path d="M59.4859 88.3008L55.546 87.1668L52.5643 92.363C56.3659 91.3381 58.7064 92.6592 59.4015 93.4479L59.4859 88.3008Z" fill="#FB8CE9"/>
<ellipse cx="24.4683" cy="26.7291" rx="24.4683" ry="26.7291" transform="matrix(0.981908 -0.189359 0.187138 0.982334 0.982422 13.8516)" fill="#5007F6"/>
<path d="M36.6602 18.4004C40.1388 20.5671 46.301 28.0004 43.1205 40.4004" stroke="white" stroke-width="2" stroke-linecap="round"/>
<path d="M89.4395 16.5C92.6019 18.5725 94.409 22.7174 94.409 27.5" stroke="white" stroke-width="2" stroke-linecap="round"/>
<path d="M41.168 45.4004C41.134 46.4004 40.1741 48.4004 39.6771 48.9004" stroke="white" stroke-width="2" stroke-linecap="round"/>
<path d="M38.751 60.5L34.7754 61.5V67.5C37.5583 64.7 40.2419 64.6667 41.2358 65L38.751 60.5Z" fill="#5007F6"/>
<path d="M68.5684 46.5C71.7308 48.5725 73.5379 52.7174 73.5379 57.5" stroke="white" stroke-width="2" stroke-linecap="round"/>
</svg>
