<svg width="335" height="442" viewBox="0 0 335 442" fill="none" xmlns="http://www.w3.org/2000/svg">
<g filter="url(#filter0_d_741_7598)">
<g clip-path="url(#clip0_741_7598)">
<rect x="6" y="2" width="323" height="430" rx="18" fill="#202020"/>
<ellipse cx="168.428" cy="405.018" rx="143.686" ry="143.686" fill="#292929"/>
<line x1="169.146" y1="219.668" x2="169.146" y2="285.748" stroke="#E1E1E1" stroke-width="1.69437" stroke-linecap="round"/>
<line x1="170.249" y1="215.956" x2="192.545" y2="201.623" stroke="white" stroke-width="1.69437" stroke-linecap="round"/>
<line x1="169.146" y1="216.28" x2="195.652" y2="216.28" stroke="white" stroke-width="1.69437" stroke-linecap="round"/>
<line x1="169.337" y1="216.529" x2="187.553" y2="221.432" stroke="white" stroke-width="1.69437" stroke-linecap="round"/>
<line x1="169.494" y1="217.212" x2="190.411" y2="241.347" stroke="white" stroke-width="1.69437" stroke-linecap="round"/>
<line x1="191.514" y1="233.903" x2="196.936" y2="237.97" stroke="white" stroke-width="1.69437" stroke-linecap="round"/>
<line x1="169.425" y1="217.536" x2="180.569" y2="241.417" stroke="white" stroke-width="1.69437" stroke-linecap="round"/>
<line x1="169.066" y1="216.352" x2="167.525" y2="233.303" stroke="white" stroke-width="1.69437" stroke-linecap="round"/>
<line x1="168.534" y1="216.606" x2="152.53" y2="240.612" stroke="white" stroke-width="1.69437" stroke-linecap="round"/>
<line x1="168.299" y1="216.63" x2="155.942" y2="228.987" stroke="white" stroke-width="1.69437" stroke-linecap="round"/>
<line x1="167.452" y1="216.279" x2="136.953" y2="216.279" stroke="white" stroke-width="1.69437" stroke-linecap="round"/>
<line x1="167.333" y1="216.14" x2="146.981" y2="213.009" stroke="white" stroke-width="1.69437" stroke-linecap="round"/>
<line x1="167.128" y1="215.686" x2="144.832" y2="201.353" stroke="white" stroke-width="1.69437" stroke-linecap="round"/>
<line x1="167.103" y1="215.511" x2="154.824" y2="204.767" stroke="white" stroke-width="1.69437" stroke-linecap="round"/>
<line x1="169.496" y1="215.375" x2="186.88" y2="231.179" stroke="white" stroke-width="1.69437" stroke-linecap="round"/>
<line x1="169.315" y1="216.067" x2="174.017" y2="236.442" stroke="white" stroke-width="1.69437" stroke-linecap="round"/>
<line x1="168.835" y1="216.503" x2="162.593" y2="235.228" stroke="white" stroke-width="1.69437" stroke-linecap="round"/>
<line x1="168.937" y1="216.446" x2="160.841" y2="252.069" stroke="white" stroke-width="1.69437" stroke-linecap="round"/>
<line x1="167.617" y1="216.417" x2="150.646" y2="219.502" stroke="white" stroke-width="1.69437" stroke-linecap="round"/>
<line x1="167.862" y1="216.547" x2="142.305" y2="227.729" stroke="white" stroke-width="1.69437" stroke-linecap="round"/>
<line x1="168.112" y1="216.615" x2="150.844" y2="229.173" stroke="white" stroke-width="1.69437" stroke-linecap="round"/>
<line x1="169.444" y1="215.079" x2="196.751" y2="229.536" stroke="white" stroke-width="1.69437" stroke-linecap="round"/>
<line x1="169.479" y1="215.223" x2="185.034" y2="226.112" stroke="white" stroke-width="1.69437" stroke-linecap="round"/>
<line x1="167.155" y1="215.077" x2="151" y2="184.383" stroke="white" stroke-width="1.69437" stroke-linecap="round"/>
<line x1="169.994" y1="215.536" x2="188.736" y2="196.794" stroke="white" stroke-width="1.69437" stroke-linecap="round"/>
<line x1="169.414" y1="215.083" x2="177.418" y2="187.208" stroke="white" stroke-width="1.69437" stroke-linecap="round"/>
<line x1="166.499" y1="195.264" x2="165.886" y2="190.975" stroke="white" stroke-width="1.69437" stroke-linecap="round"/>
<line x1="144.267" y1="212.72" x2="139.991" y2="212.03" stroke="white" stroke-width="1.69437" stroke-linecap="round"/>
<line x1="152.518" y1="231.876" x2="149.159" y2="234.611" stroke="white" stroke-width="1.69437" stroke-linecap="round"/>
<line x1="146.149" y1="236.959" x2="140.688" y2="241.39" stroke="white" stroke-width="1.69437" stroke-linecap="round"/>
<line x1="168.893" y1="216.655" x2="159.356" y2="192.813" stroke="white" stroke-width="1.69437" stroke-linecap="round"/>
<line x1="169.075" y1="216.621" x2="167.532" y2="199.407" stroke="white" stroke-width="1.69437" stroke-linecap="round"/>
<ellipse cx="136.953" cy="211.196" rx="0.847184" ry="0.847185" fill="white"/>
<ellipse cx="186.091" cy="241.698" rx="0.847184" ry="0.847185" fill="white"/>
<ellipse cx="167.453" cy="236.614" rx="0.847184" ry="0.847185" fill="white"/>
<path d="M84.2142 341.459C89.0239 332.76 101.589 332.936 106.154 341.766C110.434 350.047 104.423 359.92 95.1019 359.92C85.6272 359.92 79.6298 349.751 84.2142 341.459Z" fill="#FF127C"/>
<path d="M233.179 341.459C237.989 332.76 250.554 332.936 255.119 341.766C259.399 350.047 253.388 359.92 244.067 359.92C234.592 359.92 228.595 349.751 233.179 341.459Z" fill="#FF127C"/>
<path d="M125.78 285.667C130.343 277.504 142.146 277.67 146.477 285.958C150.571 293.792 144.889 303.174 136.05 303.174C127.065 303.174 121.396 293.51 125.78 285.667Z" fill="#FF127C"/>
<rect x="134.297" y="284.66" width="5.74855" height="3.17577" rx="1.58789" transform="rotate(120.237 134.297 284.66)" fill="white"/>
<path d="M159.302 286.412C163.865 278.249 175.667 278.416 179.999 286.704C184.093 294.537 178.41 303.919 169.572 303.919C160.587 303.919 154.918 294.255 159.302 286.412Z" fill="#FF127C"/>
<rect x="167.818" y="285.404" width="5.74855" height="3.17577" rx="1.58789" transform="rotate(120.237 167.818 285.404)" fill="white"/>
<path d="M194.314 286.413C198.877 278.25 210.679 278.416 215.011 286.704C219.105 294.538 213.422 303.919 204.583 303.919C195.599 303.919 189.93 294.255 194.314 286.413Z" fill="#FF127C"/>
<rect x="202.828" y="285.404" width="5.74855" height="3.17577" rx="1.58789" transform="rotate(120.237 202.828 285.404)" fill="white"/>
<path d="M111.764 309.929C111.764 303.715 116.802 298.677 123.016 298.677H213.717C219.932 298.677 224.97 303.715 224.97 309.929V355.16H111.764V309.929Z" fill="#CFCEFF"/>
<path d="M124.913 330.756C118.873 338.033 114.054 328.647 111.764 325.462V355.594H224.97V325.462C220.668 325.462 218.539 330.756 215.223 334.063C211.907 337.37 208.592 335.754 204.769 330.756C199.989 324.51 194.801 325.462 190.918 330.239C187.035 335.016 181.957 338.323 174.49 330.239C167.023 322.156 160.97 330.287 158.498 332.283C153.907 335.989 150.059 337.003 143.487 330.756C136.916 324.51 130.367 324.187 124.913 330.756Z" fill="#FFDAA2"/>
<path d="M184.538 341.459C189.348 332.76 201.914 332.936 206.478 341.766C210.758 350.047 204.748 359.92 195.426 359.92C185.951 359.92 179.954 349.751 184.538 341.459Z" fill="#FF127C"/>
<path d="M134.244 341.459C139.053 332.76 151.619 332.936 156.183 341.766C160.463 350.047 154.453 359.92 145.131 359.92C135.656 359.92 129.659 349.751 134.244 341.459Z" fill="#FF127C"/>
<path d="M70.5547 374.872C70.5547 364.225 79.1859 355.594 89.8329 355.594H245.225C255.872 355.594 264.503 364.225 264.503 374.872V431.184H70.5547V374.872Z" fill="#CFCEFF"/>
<path d="M93.0833 396.928C82.7348 407.18 74.478 393.956 70.5547 389.469V431.923H264.503V389.469C257.134 389.469 253.485 396.928 247.805 401.587C242.124 406.247 236.444 403.969 229.894 396.928C221.706 388.126 212.818 389.469 206.165 396.199C199.512 402.93 190.813 407.59 178.019 396.199C165.226 384.809 154.857 396.267 150.622 399.079C142.756 404.301 136.163 405.729 124.905 396.928C113.647 388.126 102.427 387.671 93.0833 396.928Z" fill="#FFDAA2"/>
<rect x="222.17" y="404.686" width="5.26189" height="12.9778" rx="2.63094" transform="rotate(29.0845 222.17 404.686)" fill="#FFA39A"/>
<rect x="245.838" y="407.242" width="5.26189" height="12.9778" rx="2.63094" transform="rotate(29.0845 245.838 407.242)" fill="#FFA39A"/>
<rect x="151.111" y="407.242" width="5.26189" height="12.9778" rx="2.63094" transform="rotate(29.0845 151.111 407.242)" fill="#FFA39A"/>
<rect x="99.9883" y="400.736" width="5.26189" height="12.9778" rx="2.63094" transform="rotate(-42.4543 99.9883 400.736)" fill="#FFA39A"/>
<rect x="99.9883" y="400.736" width="5.26189" height="12.9778" rx="2.63094" transform="rotate(-42.4543 99.9883 400.736)" fill="#FFA39A"/>
<rect x="161.477" y="403.052" width="5.26189" height="13.3142" rx="2.63094" transform="rotate(-36.1621 161.477 403.052)" fill="#FFA39A"/>
<ellipse cx="83.1207" cy="359.192" rx="8.76327" ry="8.76327" fill="white"/>
<ellipse cx="97.7144" cy="359.193" rx="8.76327" ry="8.76327" fill="white"/>
<ellipse cx="111.851" cy="359.193" rx="8.76327" ry="8.76327" fill="white"/>
<ellipse cx="125.752" cy="359.193" rx="8.76327" ry="8.76327" fill="white"/>
<ellipse cx="139.962" cy="359.193" rx="8.76327" ry="8.76327" fill="white"/>
<ellipse cx="154.941" cy="359.193" rx="8.76327" ry="8.76327" fill="white"/>
<ellipse cx="169.152" cy="359.193" rx="8.76327" ry="8.76327" fill="white"/>
<ellipse cx="184.132" cy="359.193" rx="8.76327" ry="8.76327" fill="white"/>
<ellipse cx="198.341" cy="359.193" rx="8.76327" ry="8.76327" fill="white"/>
<ellipse cx="213.322" cy="359.193" rx="8.76327" ry="8.76327" fill="white"/>
<ellipse cx="184.132" cy="359.193" rx="8.76327" ry="8.76327" fill="white"/>
<ellipse cx="198.341" cy="359.193" rx="8.76327" ry="8.76327" fill="white"/>
<ellipse cx="213.322" cy="359.193" rx="8.76327" ry="8.76327" fill="white"/>
<ellipse cx="224.808" cy="359.193" rx="8.76327" ry="8.76327" fill="white"/>
<ellipse cx="236.296" cy="359.193" rx="8.76327" ry="8.76327" fill="white"/>
<ellipse cx="251.275" cy="359.193" rx="8.76327" ry="8.76327" fill="white"/>
<path d="M236.526 60.6274L236.195 53.0187L242.507 56.6629L236.526 60.6274Z" fill="#FF8B8B"/>
<path d="M156.352 186.613L156.021 179.005L162.333 182.649L156.352 186.613Z" fill="#FF8B8B"/>
<path d="M203.83 220.653L206.953 217.529L203.83 214.406L200.706 217.529L203.83 220.653Z" fill="#FF8B8B"/>
<path d="M133.027 268.549L136.15 265.425L133.027 262.301L129.903 265.425L133.027 268.549Z" fill="white"/>
<path d="M210.747 232.263L214.869 225.859L217.92 232.478L210.747 232.263Z" fill="#FDCD0B"/>
<path d="M224.08 140.096L228.433 139.348L227.686 134.994L223.332 135.742L224.08 140.096Z" fill="#FDCD0B"/>
<path d="M135.578 45.3464L139.931 44.5986L139.184 40.2449L134.83 40.9927L135.578 45.3464Z" fill="#FDCD0B"/>
<path d="M132.455 177.579L136.808 176.832L136.061 172.478L131.707 173.226L132.455 177.579Z" fill="#5E49FF"/>
</g>
</g>
<defs>
<filter id="filter0_d_741_7598" x="0.793974" y="0.958794" width="333.412" height="440.412" filterUnits="userSpaceOnUse" color-interpolation-filters="sRGB">
<feFlood flood-opacity="0" result="BackgroundImageFix"/>
<feColorMatrix in="SourceAlpha" type="matrix" values="0 0 0 0 0 0 0 0 0 0 0 0 0 0 0 0 0 0 127 0" result="hardAlpha"/>
<feOffset dy="4.16482"/>
<feGaussianBlur stdDeviation="2.60301"/>
<feComposite in2="hardAlpha" operator="out"/>
<feColorMatrix type="matrix" values="0 0 0 0 0 0 0 0 0 0 0 0 0 0 0 0 0 0 0.1 0"/>
<feBlend mode="normal" in2="BackgroundImageFix" result="effect1_dropShadow_741_7598"/>
<feBlend mode="normal" in="SourceGraphic" in2="effect1_dropShadow_741_7598" result="shape"/>
</filter>
<clipPath id="clip0_741_7598">
<rect x="6" y="2" width="323" height="430" rx="18" fill="white"/>
</clipPath>
</defs>
</svg>
