<svg width="323" height="430" viewBox="0 0 323 430" fill="none" xmlns="http://www.w3.org/2000/svg">
<rect width="323" height="430" rx="28.0438" fill="white"/>
<path d="M177.057 285.077C177.057 338.261 144.585 381.375 104.528 381.375C64.472 381.375 32 338.261 32 285.077C32 231.893 64.472 188.779 104.528 188.779C144.585 188.779 177.057 231.893 177.057 285.077Z" fill="#5E49FF"/>
<path d="M177.057 153.429C177.057 206.613 144.585 249.727 104.528 249.727C64.472 249.727 32 206.613 32 153.429C32 100.245 64.472 57.1309 104.528 57.1309C144.585 57.1309 177.057 100.245 177.057 153.429Z" fill="#5E49FF"/>
<path d="M292.857 153.429C292.857 206.613 260.385 249.727 220.329 249.727C180.273 249.727 147.801 206.613 147.801 153.429C147.801 100.245 180.273 57.1309 220.329 57.1309C260.385 57.1309 292.857 100.245 292.857 153.429Z" fill="#5E49FF"/>
<path d="M292.857 285.077C292.857 338.261 260.385 381.375 220.329 381.375C180.273 381.375 147.801 338.261 147.801 285.077C147.801 231.893 180.273 188.779 220.329 188.779C260.385 188.779 292.857 231.893 292.857 285.077Z" fill="#5E49FF"/>
<mask id="path-6-outside-1_741_7741" maskUnits="userSpaceOnUse" x="53.5977" y="160.057" width="218" height="252" fill="black">
<rect fill="white" x="53.5977" y="160.057" width="218" height="252"/>
<path fill-rule="evenodd" clip-rule="evenodd" d="M159.255 179.206C159.071 181.178 159.904 182.776 162.741 183.113H159.229V183.113H159.229V187.73L159.229 187.73V196.423L159.229 196.423V206.551L159.229 206.551V215.244L159.229 215.244V225.372L159.229 225.372V234.065L159.229 234.065V238.076C158.217 238.878 157.33 239.903 156.639 241.153L153.438 246.942C150.31 252.601 152.611 259.223 157.601 262.161H135.612C140.51 259.279 142.833 252.845 139.926 247.221L136.919 241.403C133.19 234.19 122.925 234.046 118.996 241.153L115.795 246.942C112.667 252.601 114.968 259.223 119.958 262.161H109.524C103.714 262.161 99.004 266.871 99.004 272.681V273.119C99.0036 273.157 99.0034 273.195 99.0034 273.232L99.0034 295.476C99.0034 295.494 99.0036 295.513 99.004 295.531V297.424C94.376 294.838 88.0202 296.132 85.119 301.379L81.918 307.169C78.7892 312.828 81.0906 319.451 86.0811 322.388H83.9471L83.8597 322.388H83.1499C73.1957 322.388 65.1262 330.458 65.1262 340.412V390.242C60.8656 390.877 57.5977 394.551 57.5977 398.989C57.5977 403.873 61.5573 407.833 66.4418 407.833C68.9053 407.833 71.1335 406.826 72.7371 405.201H75.2047C76.8083 406.825 79.0361 407.832 81.499 407.832C83.962 407.832 86.1898 406.825 87.7934 405.201H90.2609C91.8645 406.825 94.0923 407.832 96.5552 407.832C99.0182 407.832 101.246 406.825 102.85 405.201H106.938C108.542 406.825 110.769 407.832 113.232 407.832C115.695 407.832 117.923 406.825 119.527 405.201H121.279C122.883 406.825 125.111 407.832 127.574 407.832C130.037 407.832 132.264 406.825 133.868 405.201H136.394C137.998 406.825 140.226 407.832 142.689 407.832C145.152 407.832 147.379 406.825 148.983 405.201H150.738C152.341 406.825 154.569 407.832 157.032 407.832C159.495 407.832 161.723 406.825 163.326 405.201H165.857C167.46 406.825 169.688 407.832 172.151 407.832C174.614 407.832 176.842 406.825 178.446 405.201H180.198C181.802 406.825 184.03 407.832 186.492 407.832C188.955 407.832 191.183 406.825 192.787 405.201H195.317C196.921 406.825 199.149 407.832 201.612 407.832C203.828 407.832 205.854 407.016 207.406 405.669C208.958 407.016 210.985 407.832 213.201 407.832C215.664 407.832 217.892 406.825 219.496 405.201H222.008C223.612 406.825 225.84 407.832 228.303 407.832C230.766 407.832 232.993 406.825 234.597 405.201H237.064C238.668 406.825 240.896 407.832 243.359 407.832C245.822 407.832 248.049 406.825 249.653 405.201H252.121C253.724 406.826 255.953 407.833 258.416 407.833C263.3 407.833 267.26 403.873 267.26 398.989C267.26 394.953 264.558 391.549 260.864 390.488V367.559V341.209V340.412C260.864 330.458 252.794 322.388 242.84 322.388H242.119L242.043 322.388H241.009C245.908 319.506 248.231 313.072 245.324 307.448L242.317 301.63C239.244 295.686 231.733 294.542 226.986 298.301V272.681C226.986 266.871 222.276 262.161 216.466 262.161H210.896C215.795 259.279 218.117 252.845 215.21 247.221L212.203 241.403C208.475 234.19 198.21 234.046 194.28 241.153L191.079 246.942C187.951 252.601 190.252 259.223 195.242 262.161H173.255C178.154 259.279 180.476 252.845 177.569 247.221L174.562 241.403C172.889 238.166 169.9 236.353 166.758 235.979L166.758 183.113L162.748 183.113C164.667 182.913 167.071 181.757 166.726 178.831C166.958 176.488 166.017 173.027 162.744 168.057C161.073 170.956 158.982 175.781 159.255 179.206Z"/>
</mask>
<path fill-rule="evenodd" clip-rule="evenodd" d="M159.255 179.206C159.071 181.178 159.904 182.776 162.741 183.113H159.229V183.113H159.229V187.73L159.229 187.73V196.423L159.229 196.423V206.551L159.229 206.551V215.244L159.229 215.244V225.372L159.229 225.372V234.065L159.229 234.065V238.076C158.217 238.878 157.33 239.903 156.639 241.153L153.438 246.942C150.31 252.601 152.611 259.223 157.601 262.161H135.612C140.51 259.279 142.833 252.845 139.926 247.221L136.919 241.403C133.19 234.19 122.925 234.046 118.996 241.153L115.795 246.942C112.667 252.601 114.968 259.223 119.958 262.161H109.524C103.714 262.161 99.004 266.871 99.004 272.681V273.119C99.0036 273.157 99.0034 273.195 99.0034 273.232L99.0034 295.476C99.0034 295.494 99.0036 295.513 99.004 295.531V297.424C94.376 294.838 88.0202 296.132 85.119 301.379L81.918 307.169C78.7892 312.828 81.0906 319.451 86.0811 322.388H83.9471L83.8597 322.388H83.1499C73.1957 322.388 65.1262 330.458 65.1262 340.412V390.242C60.8656 390.877 57.5977 394.551 57.5977 398.989C57.5977 403.873 61.5573 407.833 66.4418 407.833C68.9053 407.833 71.1335 406.826 72.7371 405.201H75.2047C76.8083 406.825 79.0361 407.832 81.499 407.832C83.962 407.832 86.1898 406.825 87.7934 405.201H90.2609C91.8645 406.825 94.0923 407.832 96.5552 407.832C99.0182 407.832 101.246 406.825 102.85 405.201H106.938C108.542 406.825 110.769 407.832 113.232 407.832C115.695 407.832 117.923 406.825 119.527 405.201H121.279C122.883 406.825 125.111 407.832 127.574 407.832C130.037 407.832 132.264 406.825 133.868 405.201H136.394C137.998 406.825 140.226 407.832 142.689 407.832C145.152 407.832 147.379 406.825 148.983 405.201H150.738C152.341 406.825 154.569 407.832 157.032 407.832C159.495 407.832 161.723 406.825 163.326 405.201H165.857C167.46 406.825 169.688 407.832 172.151 407.832C174.614 407.832 176.842 406.825 178.446 405.201H180.198C181.802 406.825 184.03 407.832 186.492 407.832C188.955 407.832 191.183 406.825 192.787 405.201H195.317C196.921 406.825 199.149 407.832 201.612 407.832C203.828 407.832 205.854 407.016 207.406 405.669C208.958 407.016 210.985 407.832 213.201 407.832C215.664 407.832 217.892 406.825 219.496 405.201H222.008C223.612 406.825 225.84 407.832 228.303 407.832C230.766 407.832 232.993 406.825 234.597 405.201H237.064C238.668 406.825 240.896 407.832 243.359 407.832C245.822 407.832 248.049 406.825 249.653 405.201H252.121C253.724 406.826 255.953 407.833 258.416 407.833C263.3 407.833 267.26 403.873 267.26 398.989C267.26 394.953 264.558 391.549 260.864 390.488V367.559V341.209V340.412C260.864 330.458 252.794 322.388 242.84 322.388H242.119L242.043 322.388H241.009C245.908 319.506 248.231 313.072 245.324 307.448L242.317 301.63C239.244 295.686 231.733 294.542 226.986 298.301V272.681C226.986 266.871 222.276 262.161 216.466 262.161H210.896C215.795 259.279 218.117 252.845 215.21 247.221L212.203 241.403C208.475 234.19 198.21 234.046 194.28 241.153L191.079 246.942C187.951 252.601 190.252 259.223 195.242 262.161H173.255C178.154 259.279 180.476 252.845 177.569 247.221L174.562 241.403C172.889 238.166 169.9 236.353 166.758 235.979L166.758 183.113L162.748 183.113C164.667 182.913 167.071 181.757 166.726 178.831C166.958 176.488 166.017 173.027 162.744 168.057C161.073 170.956 158.982 175.781 159.255 179.206Z" fill="black"/>
<path d="M162.741 183.113V186.877L163.185 179.375L162.741 183.113ZM159.255 179.206L163.003 179.555L163.033 179.231L163.007 178.906L159.255 179.206ZM159.229 183.113V179.349H155.465V183.113H159.229ZM159.229 183.113V186.877H162.993V183.113H159.229ZM159.229 183.113V179.349H155.465V183.113H159.229ZM159.229 187.73H155.465V189.903L157.346 190.989L159.229 187.73ZM159.229 187.73H162.993V185.557L161.112 184.471L159.229 187.73ZM159.229 196.423L157.347 199.683L162.993 202.944V196.423H159.229ZM159.229 196.423L161.112 193.163L155.465 189.902V196.423H159.229ZM159.229 206.551H155.465V208.724L157.346 209.81L159.229 206.551ZM159.229 206.551H162.993V204.378L161.112 203.292L159.229 206.551ZM159.229 215.244L157.347 218.504L162.993 221.765V215.244H159.229ZM159.229 215.244L161.112 211.984L155.465 208.723V215.244H159.229ZM159.229 225.372H155.465V227.547L157.349 228.633L159.229 225.372ZM159.229 225.372H162.993V223.197L161.109 222.111L159.229 225.372ZM159.229 234.065L157.35 237.327L162.993 240.579V234.065H159.229ZM159.229 234.065L161.108 230.804L155.465 227.551V234.065H159.229ZM159.229 238.076L161.567 241.026L162.993 239.896V238.076H159.229ZM156.639 241.153L153.345 239.331V239.331L156.639 241.153ZM153.438 246.942L150.144 245.121L153.438 246.942ZM157.601 262.161V265.925H171.415L159.511 258.917L157.601 262.161ZM135.612 262.161L133.703 258.917L121.793 265.925H135.612V262.161ZM139.926 247.221L143.27 245.492L139.926 247.221ZM136.919 241.403L133.575 243.132L136.919 241.403ZM118.996 241.153L122.29 242.974L118.996 241.153ZM115.795 246.942L112.501 245.121L115.795 246.942ZM119.958 262.161V265.925H133.772L121.868 258.917L119.958 262.161ZM99.004 273.119L102.768 273.157L102.768 273.138V273.119H99.004ZM99.0034 273.232H102.768H99.0034ZM99.0034 295.476H95.2392H99.0034ZM99.004 295.531H102.768V295.493L102.767 295.454L99.004 295.531ZM99.004 297.424L97.1679 300.71L102.768 303.839V297.424H99.004ZM85.119 301.379L81.8248 299.558L85.119 301.379ZM81.918 307.169L85.2123 308.99L81.918 307.169ZM86.0811 322.388V326.152H99.8961L87.9906 319.144L86.0811 322.388ZM83.9471 322.388V318.624L83.9385 318.624L83.9471 322.388ZM83.8597 322.388V326.153L83.8683 326.153L83.8597 322.388ZM65.1262 390.242L65.6814 393.965L68.8903 393.486V390.242H65.1262ZM72.7371 405.201V401.436H71.1633L70.0578 402.557L72.7371 405.201ZM75.2047 405.201L77.8836 402.556L76.7782 401.436H75.2047V405.201ZM87.7934 405.201V401.436H86.2199L85.1145 402.556L87.7934 405.201ZM90.2609 405.201L92.9398 402.556L91.8344 401.436H90.2609V405.201ZM102.85 405.201V401.436H101.276L100.171 402.556L102.85 405.201ZM106.938 405.201L109.617 402.556L108.512 401.436H106.938V405.201ZM119.527 405.201V401.436H117.953L116.848 402.556L119.527 405.201ZM121.279 405.201L123.958 402.556L122.853 401.436H121.279V405.201ZM133.868 405.201V401.436H132.295L131.189 402.556L133.868 405.201ZM136.394 405.201L139.073 402.556L137.968 401.436H136.394V405.201ZM148.983 405.201V401.436H147.41L146.304 402.556L148.983 405.201ZM150.738 405.201L153.417 402.556L152.311 401.436H150.738V405.201ZM163.326 405.201V401.436H161.753L160.647 402.556L163.326 405.201ZM165.857 405.201L168.536 402.556L167.43 401.436H165.857V405.201ZM178.446 405.201V401.436H176.872L175.767 402.556L178.446 405.201ZM180.198 405.201L182.877 402.556L181.772 401.436H180.198V405.201ZM192.787 405.201V401.436H191.213L190.108 402.556L192.787 405.201ZM195.317 405.201L197.996 402.556L196.891 401.436H195.317V405.201ZM207.406 405.669L209.874 402.826L207.406 400.685L204.939 402.826L207.406 405.669ZM219.496 405.201V401.436H217.922L216.817 402.556L219.496 405.201ZM222.008 405.201L224.687 402.556L223.582 401.436H222.008V405.201ZM234.597 405.201V401.436H233.023L231.918 402.556L234.597 405.201ZM237.064 405.201L239.743 402.556L238.638 401.436H237.064V405.201ZM249.653 405.201V401.436H248.08L246.974 402.556L249.653 405.201ZM252.121 405.201L254.8 402.557L253.694 401.436H252.121V405.201ZM260.864 390.488H257.1V393.322L259.824 394.105L260.864 390.488ZM242.119 322.388L242.112 326.153H242.119V322.388ZM242.043 322.388L242.05 318.624H242.043V322.388ZM241.009 322.388L239.1 319.144L227.189 326.152H241.009V322.388ZM245.324 307.448L241.98 309.176L241.98 309.176L245.324 307.448ZM242.317 301.63L245.661 299.902H245.661L242.317 301.63ZM226.986 298.301H223.222V306.082L229.323 301.252L226.986 298.301ZM210.896 262.161L208.987 258.917L197.077 265.925H210.896V262.161ZM215.21 247.221L211.866 248.949H211.867L215.21 247.221ZM212.203 241.403L215.547 239.675L215.547 239.675L212.203 241.403ZM194.28 241.153L190.986 239.331L194.28 241.153ZM191.079 246.942L194.374 248.764L194.374 248.764L191.079 246.942ZM195.242 262.161V265.925H209.056L197.152 258.917L195.242 262.161ZM173.255 262.161L171.346 258.917L159.436 265.925H173.255V262.161ZM177.569 247.221L180.913 245.492L177.569 247.221ZM174.562 241.403L177.906 239.675V239.675L174.562 241.403ZM166.758 235.979H162.993V239.323L166.313 239.717L166.758 235.979ZM166.758 183.113L170.522 183.113V179.349L166.758 179.349V183.113ZM162.748 183.113L162.358 179.369L162.748 186.877V183.113ZM166.726 178.831L162.98 178.46L162.94 178.866L162.988 179.271L166.726 178.831ZM162.744 168.057L165.888 165.986L162.53 160.888L159.483 166.177L162.744 168.057ZM163.185 179.375C162.791 179.328 162.626 179.256 162.605 179.246C162.597 179.242 162.623 179.254 162.669 179.29C162.717 179.327 162.772 179.38 162.827 179.45C162.881 179.519 162.923 179.59 162.952 179.653C162.98 179.716 162.993 179.762 162.997 179.781C163.004 179.814 162.985 179.75 163.003 179.555L155.507 178.856C155.362 180.414 155.566 182.391 156.903 184.096C158.258 185.823 160.255 186.609 162.297 186.851L163.185 179.375ZM159.229 186.877H162.741V179.349H159.229V186.877ZM162.993 183.113V183.113H155.465V183.113H162.993ZM159.229 186.877H159.229V179.349H159.229V186.877ZM162.993 187.73V183.113H155.465V187.73H162.993ZM161.112 184.471L161.112 184.47L157.346 190.989L157.347 190.99L161.112 184.471ZM162.993 196.423V187.73H155.465V196.423H162.993ZM157.346 199.682L157.347 199.683L161.112 193.164L161.112 193.163L157.346 199.682ZM162.993 206.551V196.423H155.465V206.551H162.993ZM161.112 203.292L161.112 203.291L157.346 209.81L157.347 209.811L161.112 203.292ZM162.993 215.244V206.551H155.465V215.244H162.993ZM157.346 218.503L157.347 218.504L161.112 211.985L161.112 211.984L157.346 218.503ZM162.993 225.372V215.244H155.465V225.372H162.993ZM161.109 222.111L161.108 222.111L157.349 228.633L157.35 228.634L161.109 222.111ZM162.993 234.065V225.372H155.465V234.065H162.993ZM157.349 237.326L157.35 237.327L161.109 230.804L161.108 230.804L157.349 237.326ZM162.993 238.076V234.065H155.465V238.076H162.993ZM159.934 242.974C160.383 242.161 160.944 241.519 161.567 241.026L156.891 235.126C155.489 236.237 154.277 237.646 153.345 239.331L159.934 242.974ZM156.733 248.764L159.934 242.974L153.345 239.331L150.144 245.121L156.733 248.764ZM159.511 258.917C156.15 256.939 154.661 252.511 156.733 248.764L150.144 245.121C145.959 252.691 149.071 261.508 155.691 265.405L159.511 258.917ZM135.612 265.925H157.601V258.397H135.612V265.925ZM136.582 248.949C138.508 252.675 137 256.977 133.703 258.917L137.521 265.405C144.021 261.58 147.158 253.015 143.27 245.492L136.582 248.949ZM133.575 243.132L136.582 248.949L143.27 245.492L140.263 239.675L133.575 243.132ZM122.29 242.974C124.764 238.499 131.228 238.59 133.575 243.132L140.263 239.675C135.153 229.789 121.086 229.593 115.702 239.331L122.29 242.974ZM119.09 248.764L122.29 242.974L115.702 239.331L112.501 245.121L119.09 248.764ZM121.868 258.917C118.507 256.939 117.018 252.511 119.09 248.764L112.501 245.121C108.316 252.691 111.428 261.508 118.048 265.405L121.868 258.917ZM109.524 265.925H119.958V258.397H109.524V265.925ZM102.768 272.681C102.768 268.95 105.793 265.925 109.524 265.925V258.397C101.635 258.397 95.2398 264.792 95.2398 272.681H102.768ZM102.768 273.119V272.681H95.2398V273.119H102.768ZM102.768 273.232C102.768 273.207 102.768 273.182 102.768 273.157L95.24 273.081C95.2395 273.131 95.2392 273.182 95.2392 273.232H102.768ZM102.768 295.476L102.768 273.232H95.2392L95.2392 295.476H102.768ZM102.767 295.454C102.768 295.461 102.768 295.468 102.768 295.476H95.2392C95.2392 295.52 95.2397 295.565 95.2406 295.609L102.767 295.454ZM102.768 297.424V295.531H95.2398V297.424H102.768ZM88.4132 303.201C90.2228 299.928 94.2078 299.056 97.1679 300.71L100.84 294.138C94.5442 290.62 85.8177 292.336 81.8248 299.558L88.4132 303.201ZM85.2123 308.99L88.4132 303.201L81.8248 299.558L78.6238 305.348L85.2123 308.99ZM87.9906 319.144C84.6301 317.166 83.1402 312.738 85.2123 308.99L78.6238 305.348C74.4382 312.918 77.5511 321.735 84.1716 325.632L87.9906 319.144ZM83.9471 326.152H86.0811V318.624H83.9471V326.152ZM83.8683 326.153L83.9556 326.152L83.9385 318.624L83.8512 318.624L83.8683 326.153ZM83.1499 326.153H83.8597V318.624H83.1499V326.153ZM68.8903 340.412C68.8903 332.537 75.2746 326.153 83.1499 326.153V318.624C71.1168 318.624 61.362 328.379 61.362 340.412H68.8903ZM68.8903 390.242V340.412H61.362V390.242H68.8903ZM61.3618 398.989C61.3618 396.443 63.2376 394.329 65.6814 393.965L64.5709 386.519C58.4937 387.425 53.8335 392.659 53.8335 398.989H61.3618ZM66.4418 404.069C63.6362 404.069 61.3618 401.794 61.3618 398.989H53.8335C53.8335 405.952 59.4784 411.597 66.4418 411.597V404.069ZM70.0578 402.557C69.1324 403.494 67.8576 404.069 66.4418 404.069V411.597C69.9529 411.597 73.1345 410.157 75.4164 407.844L70.0578 402.557ZM75.2047 401.436H72.7371V408.965H75.2047V401.436ZM81.499 404.068C80.0835 404.068 78.8089 403.494 77.8836 402.556L72.5258 407.845C74.8076 410.156 77.9887 411.596 81.499 411.596V404.068ZM85.1145 402.556C84.1891 403.494 82.9146 404.068 81.499 404.068V411.596C85.0094 411.596 88.1904 410.156 90.4722 407.845L85.1145 402.556ZM90.2609 401.436H87.7934V408.965H90.2609V401.436ZM96.5552 404.068C95.1397 404.068 93.8651 403.494 92.9398 402.556L87.5821 407.845C89.8638 410.156 93.0449 411.596 96.5552 411.596V404.068ZM100.171 402.556C99.2453 403.494 97.9708 404.068 96.5552 404.068V411.596C100.066 411.596 103.247 410.156 105.528 407.845L100.171 402.556ZM106.938 401.436H102.85V408.965H106.938V401.436ZM113.232 404.068C111.817 404.068 110.542 403.494 109.617 402.556L104.259 407.845C106.541 410.156 109.722 411.596 113.232 411.596V404.068ZM116.848 402.556C115.923 403.494 114.648 404.068 113.232 404.068V411.596C116.743 411.596 119.924 410.156 122.206 407.845L116.848 402.556ZM121.279 401.436H119.527V408.965H121.279V401.436ZM127.574 404.068C126.158 404.068 124.884 403.494 123.958 402.556L118.601 407.845C120.882 410.156 124.063 411.596 127.574 411.596V404.068ZM131.189 402.556C130.264 403.494 128.989 404.068 127.574 404.068V411.596C131.084 411.596 134.265 410.156 136.547 407.845L131.189 402.556ZM136.394 401.436H133.868V408.965H136.394V401.436ZM142.689 404.068C141.273 404.068 139.999 403.494 139.073 402.556L133.716 407.845C135.997 410.156 139.178 411.596 142.689 411.596V404.068ZM146.304 402.556C145.379 403.494 144.104 404.068 142.689 404.068V411.596C146.199 411.596 149.38 410.156 151.662 407.845L146.304 402.556ZM150.738 401.436H148.983V408.965H150.738V401.436ZM157.032 404.068C155.616 404.068 154.342 403.494 153.417 402.556L148.059 407.845C150.341 410.156 153.522 411.596 157.032 411.596V404.068ZM160.647 402.556C159.722 403.494 158.448 404.068 157.032 404.068V411.596C160.542 411.596 163.723 410.156 166.005 407.845L160.647 402.556ZM165.857 401.436H163.326V408.965H165.857V401.436ZM172.151 404.068C170.736 404.068 169.461 403.494 168.536 402.556L163.178 407.845C165.46 410.156 168.641 411.596 172.151 411.596V404.068ZM175.767 402.556C174.841 403.494 173.567 404.068 172.151 404.068V411.596C175.662 411.596 178.843 410.156 181.124 407.845L175.767 402.556ZM180.198 401.436H178.446V408.965H180.198V401.436ZM186.492 404.068C185.077 404.068 183.802 403.494 182.877 402.556L177.519 407.845C179.801 410.156 182.982 411.596 186.492 411.596V404.068ZM190.108 402.556C189.183 403.494 187.908 404.068 186.492 404.068V411.596C190.003 411.596 193.184 410.156 195.466 407.845L190.108 402.556ZM195.317 401.436H192.787V408.965H195.317V401.436ZM201.612 404.068C200.196 404.068 198.922 403.494 197.996 402.556L192.638 407.845C194.92 410.156 198.101 411.596 201.612 411.596V404.068ZM204.939 402.826C204.045 403.602 202.888 404.068 201.612 404.068V411.596C204.769 411.596 207.663 410.431 209.874 408.512L204.939 402.826ZM213.201 404.068C211.925 404.068 210.767 403.602 209.874 402.826L204.939 408.512C207.15 410.431 210.044 411.596 213.201 411.596V404.068ZM216.817 402.556C215.891 403.494 214.617 404.068 213.201 404.068V411.596C216.712 411.596 219.893 410.156 222.174 407.845L216.817 402.556ZM222.008 401.436H219.496V408.965H222.008V401.436ZM228.303 404.068C226.887 404.068 225.612 403.494 224.687 402.556L219.329 407.845C221.611 410.156 224.792 411.596 228.303 411.596V404.068ZM231.918 402.556C230.993 403.494 229.718 404.068 228.303 404.068V411.596C231.813 411.596 234.994 410.156 237.276 407.845L231.918 402.556ZM237.064 401.436H234.597V408.965H237.064V401.436ZM243.359 404.068C241.943 404.068 240.669 403.494 239.743 402.556L234.386 407.845C236.667 410.156 239.848 411.596 243.359 411.596V404.068ZM246.974 402.556C246.049 403.494 244.774 404.068 243.359 404.068V411.596C246.869 411.596 250.05 410.156 252.332 407.845L246.974 402.556ZM252.121 401.436H249.653V408.965H252.121V401.436ZM258.416 404.069C257 404.069 255.725 403.494 254.8 402.557L249.441 407.844C251.723 410.157 254.905 411.597 258.416 411.597V404.069ZM263.496 398.989C263.496 401.794 261.222 404.069 258.416 404.069V411.597C265.379 411.597 271.024 405.952 271.024 398.989H263.496ZM259.824 394.105C261.948 394.716 263.496 396.676 263.496 398.989H271.024C271.024 393.23 267.167 388.383 261.904 386.87L259.824 394.105ZM257.1 367.559V390.488H264.628V367.559H257.1ZM257.1 341.209V367.559H264.628V341.209H257.1ZM257.1 340.412V341.209H264.628V340.412H257.1ZM242.84 326.153C250.715 326.153 257.1 332.537 257.1 340.412H264.628C264.628 328.379 254.873 318.624 242.84 318.624V326.153ZM242.119 326.153H242.84V318.624H242.119V326.153ZM242.035 326.152L242.112 326.153L242.127 318.624L242.05 318.624L242.035 326.152ZM241.009 326.152H242.043V318.624H241.009V326.152ZM241.98 309.176C243.906 312.902 242.398 317.204 239.1 319.144L242.918 325.633C249.418 321.808 252.556 313.242 248.668 305.719L241.98 309.176ZM238.973 303.359L241.98 309.176L248.668 305.719L245.661 299.902L238.973 303.359ZM229.323 301.252C232.329 298.871 237.055 299.647 238.973 303.359L245.661 299.902C241.434 291.724 231.137 290.213 224.65 295.349L229.323 301.252ZM223.222 272.681V298.301H230.75V272.681H223.222ZM216.466 265.925C220.197 265.925 223.222 268.95 223.222 272.681H230.75C230.75 264.792 224.355 258.397 216.466 258.397V265.925ZM210.896 265.925H216.466V258.397H210.896V265.925ZM211.867 248.949C213.792 252.675 212.284 256.977 208.987 258.917L212.805 265.405C219.305 261.58 222.443 253.015 218.554 245.492L211.867 248.949ZM208.859 243.132L211.866 248.949L218.554 245.492L215.547 239.675L208.859 243.132ZM197.575 242.974C200.049 238.499 206.512 238.59 208.859 243.132L215.547 239.675C210.438 229.789 196.371 229.593 190.986 239.331L197.575 242.974ZM194.374 248.764L197.575 242.974L190.986 239.331L187.785 245.121L194.374 248.764ZM197.152 258.917C193.791 256.939 192.302 252.511 194.374 248.764L187.785 245.121C183.6 252.691 186.712 261.508 193.332 265.405L197.152 258.917ZM173.255 265.925H195.242V258.397H173.255V265.925ZM174.225 248.949C176.151 252.675 174.643 256.977 171.346 258.917L175.164 265.405C181.664 261.58 184.801 253.015 180.913 245.492L174.225 248.949ZM171.218 243.132L174.225 248.949L180.913 245.492L177.906 239.675L171.218 243.132ZM166.313 239.717C168.304 239.954 170.158 241.081 171.218 243.132L177.906 239.675C175.62 235.252 171.496 232.752 167.202 232.242L166.313 239.717ZM162.993 183.113L162.993 235.979H170.522L170.522 183.113L162.993 183.113ZM162.748 186.877H166.758V179.349L162.748 179.349V186.877ZM162.988 179.271C163.009 179.454 162.973 179.44 163.019 179.322C163.065 179.206 163.131 179.14 163.144 179.129C163.146 179.128 163.131 179.141 163.091 179.164C163.051 179.186 162.993 179.214 162.915 179.243C162.754 179.303 162.557 179.348 162.358 179.369L163.137 186.857C164.58 186.707 166.471 186.185 168.028 184.859C169.771 183.373 170.786 181.118 170.464 178.39L162.988 179.271ZM159.6 170.127C162.699 174.833 163.085 177.396 162.98 178.46L170.472 179.201C170.83 175.58 169.335 171.221 165.888 165.986L159.6 170.127ZM163.007 178.906C162.933 177.969 163.189 176.493 163.824 174.676C164.432 172.935 165.267 171.217 166.006 169.936L159.483 166.177C158.55 167.796 157.504 169.94 156.717 172.193C155.957 174.369 155.304 177.018 155.503 179.505L163.007 178.906Z" fill="black" mask="url(#path-6-outside-1_741_7741)"/>
<path d="M54.6201 168.943C49.7838 175.868 44.4638 190.17 61.8747 191.983C65.0565 192.109 71.1147 190.472 69.8929 182.918C68.3656 173.476 53.8565 182.918 56.9111 193.871C59.3547 202.634 68.3656 204.321 72.5656 204.069" stroke="black" stroke-width="2.26769" stroke-linecap="round"/>
<path d="M212.609 76.2903C219.088 76.496 232.01 73.6303 231.865 60.5214C231.616 57.0337 229.352 50.2574 222.287 51.0531C219.545 51.5265 216.631 55.8689 222.218 61.392C225.411 64.5481 231.586 67.1894 239.189 58.463C248.693 47.5549 242.437 41.0256 242.218 40.7284C241.527 39.7886 236.614 35.8703 231.489 39.9323C226.365 43.9943 232.68 52.9665 239.88 51.7238C245.808 50.7888 256.392 45.2196 251.296 30.4233" stroke="black" stroke-width="2.43793" stroke-linecap="round"/>
<path d="M224.647 144.896L221.472 170.264L213.309 166.574L216.937 174.876L192.902 178.566L216.937 182.256L213.309 191.019L221.472 187.329L224.647 213.158L228.728 187.329L236.891 191.019L232.809 182.256L257.751 178.566L232.809 174.876L236.891 166.574L228.728 170.264L224.647 144.896Z" fill="#FDCD0B"/>
</svg>
