<svg width="323" height="430" viewBox="0 0 323 430" fill="none" xmlns="http://www.w3.org/2000/svg">
<rect width="323" height="430" rx="28.6448" fill="#71CCFF"/>
<path fill-rule="evenodd" clip-rule="evenodd" d="M135.864 248.503C122.461 247.785 119.672 260.061 121.373 275.025C121.304 274.892 121.234 274.76 121.164 274.627C120.343 270.804 115.486 264.157 109.867 260.439C109.388 260.115 108.904 259.82 108.414 259.555C105.096 257.715 101.617 257.023 98.612 258.599C96.9026 259.167 95.1447 260.124 93.3406 261.522C86.7093 266.662 86.0899 272.612 89.0466 278.668C84.0855 277.751 79.392 278.534 75.5333 281.964C59.8667 295.887 95.232 305.89 122.338 306.558L122.399 306.591H53.7503C50.9175 306.591 48.6211 308.887 48.6211 311.72V394.229C48.6211 397.061 50.9175 399.358 53.7503 399.358H124.526C124.828 399.671 125.253 399.866 125.723 399.866H143.631C144.101 399.866 144.526 399.671 144.829 399.358H208.907C211.74 399.358 214.037 397.061 214.037 394.229V311.72C214.037 308.887 211.74 306.591 208.907 306.591H165.364C184.724 304.435 199.396 296.472 186.488 283.374C186.136 283.017 185.773 282.691 185.401 282.395C185.262 282.277 185.11 282.163 184.946 282.052C184.065 281.421 183.133 280.951 182.161 280.625C184.026 275.985 183.31 271.279 178.702 266.77C166.267 254.603 152.814 270.605 143.146 289.118C150.331 269.688 153.042 249.423 135.864 248.503Z" fill="#FF4466"/>
<path fill-rule="evenodd" clip-rule="evenodd" d="M270.646 63.2407C270.646 60.7293 272.682 58.6934 275.194 58.6934C277.705 58.6934 279.741 60.7293 279.741 63.2407V68.0727L283.153 64.6614C284.928 62.8855 287.808 62.8855 289.584 64.6614C291.359 66.4372 291.359 69.3165 289.584 71.0923L286.18 74.4956H291.007C293.518 74.4956 295.554 76.5315 295.554 79.043C295.554 81.5544 293.518 83.5904 291.007 83.5904H286.158L289.582 87.0149C291.358 88.7907 291.358 91.67 289.582 93.4458C287.806 95.2217 284.927 95.2217 283.151 93.4458L279.741 90.0358V94.8617C279.741 97.3731 277.705 99.4091 275.194 99.4091C275.07 99.4091 274.948 99.4042 274.827 99.3945L269.989 124.088L269.989 124.087L256.097 194.994L256.098 194.995L244.197 255.74L244.196 255.739L243.215 260.746L246.079 262.178C250.039 264.158 251.934 268.624 250.818 272.739C251.549 274.689 251.622 276.897 250.869 279.012C249.175 283.769 243.945 286.252 239.189 284.557L222.107 278.474C211.735 274.78 203.935 266.093 201.376 255.385C200.076 249.948 195.719 245.773 190.231 244.706L179.191 242.56C165.824 239.962 154.651 230.831 149.442 218.249L147.813 214.314C145.402 208.49 139.763 204.656 133.461 204.554C113.474 204.233 98.051 186.863 100.096 166.978L100.676 161.347C100.94 158.773 102.249 156.559 104.138 155.081C105.811 153.233 108.229 152.072 110.918 152.072C114.913 152.072 118.31 154.634 119.554 158.206L257.348 83.1093C255.86 82.362 254.839 80.8217 254.839 79.043C254.839 76.5315 256.875 74.4956 259.386 74.4956H264.201L260.792 71.0865C259.016 69.3106 259.016 66.4313 260.792 64.6555C262.568 62.8796 265.447 62.8796 267.223 64.6555L270.646 68.0791V63.2407Z" fill="#FDE2FF"/>
<path d="M192.672 220.351C185.369 229.256 166.12 243.352 147.548 228.497C142.853 224.263 135.82 213.652 145.242 205.083C149.135 201.94 158.759 202.896 160.104 216.554C160.873 224.359 157.408 235.581 136.017 236.001C109.279 236.525 107.279 220.847 107.11 220.221C106.578 218.244 106.737 207.284 118.553 204.965C130.369 202.647 135.792 221.138 125.573 229.388C117.284 236.28 96.9116 244.222 81.7326 220.851" stroke="white" stroke-width="2.56458" stroke-linecap="round"/>
<path fill-rule="evenodd" clip-rule="evenodd" d="M28.1973 80.7351C7.65711 115.603 45.249 144.749 66.6125 154.964C69.4778 156.611 72.3066 157.313 74.9735 157.386C73.9865 159.015 73.7811 160.902 74.5952 162.185C75.7096 163.94 78.312 163.897 80.4079 162.089C80.4924 162.016 80.5749 161.942 80.6552 161.865C80.623 164.524 81.0505 167.977 81.9993 171.624C83.204 176.254 85.279 181.314 88.4477 185.577C89.2847 186.703 90.0558 187.715 90.7682 188.651L90.7684 188.651L90.7687 188.651C91.7105 189.888 92.5499 190.99 93.3038 192.042C94.6096 193.865 95.5549 195.4 96.1627 196.954C97.3446 199.974 97.3433 203.299 95.5611 209.313C95.367 209.968 95.7408 210.657 96.3959 210.851C97.051 211.045 97.7395 210.671 97.9337 210.016C99.7825 203.776 99.9401 199.817 98.4671 196.052C97.7474 194.213 96.6617 192.48 95.3153 190.601C94.5507 189.534 93.6675 188.374 92.6989 187.101C91.9856 186.164 91.2261 185.167 90.4336 184.1C87.5025 180.157 85.5415 175.411 84.3941 171.001C83.3755 167.086 83.0212 163.527 83.1548 161.12C83.4045 161.254 83.6651 161.374 83.9351 161.478C86.5171 162.476 88.9822 161.641 89.4412 159.613C89.881 157.67 88.3196 155.337 85.9171 154.267C87.7288 153.162 89.1914 151.932 90.1851 150.881C137.753 100.896 111.68 75.7699 102.637 67.841C92.3309 58.8054 53.8725 37.1507 28.1973 80.7351Z" fill="#FFF2BF"/>
<path fill-rule="evenodd" clip-rule="evenodd" d="M258.435 324.128C253.749 324.128 249.95 327.927 249.95 332.613V341.63L243.573 335.254C240.26 331.94 234.888 331.94 231.574 335.254C228.26 338.567 228.26 343.939 231.574 347.253L237.948 353.627H228.934C224.248 353.627 220.449 357.425 220.449 362.111C220.449 366.798 224.248 370.596 228.934 370.596H237.951L231.575 376.972C228.262 380.286 228.262 385.658 231.575 388.971C234.889 392.285 240.261 392.285 243.575 388.971L249.95 382.596V391.614C249.95 396.3 253.749 400.099 258.435 400.099C263.121 400.099 266.92 396.3 266.92 391.614V382.599L273.294 388.973C276.608 392.286 281.98 392.286 285.293 388.973C288.607 385.659 288.607 380.287 285.293 376.973L278.916 370.596H287.935C292.621 370.596 296.42 366.798 296.42 362.111C296.42 357.425 292.621 353.627 287.935 353.627H278.92L285.295 347.251C288.608 343.938 288.608 338.566 285.295 335.252C281.981 331.938 276.609 331.938 273.295 335.252L266.92 341.628V332.613C266.92 327.927 263.121 324.128 258.435 324.128Z" fill="#44FFFF"/>
</svg>
