<svg width="333" height="440" viewBox="0 0 333 440" fill="none" xmlns="http://www.w3.org/2000/svg">
<g filter="url(#filter0_d_741_7460)">
<mask id="path-1-inside-1_741_7460" fill="white">
<rect x="5" y="1" width="323" height="430" rx="18"/>
</mask>
<rect x="5" y="1" width="323" height="430" rx="18" fill="#FFCC00"/>
<ellipse cx="238.866" cy="179.958" rx="9.61319" ry="4.58808" transform="rotate(28.0869 238.866 179.958)" fill="#D9D9D9"/>
<path d="M231.883 187.79C222.921 194.28 204.135 212.107 195.55 229.276" stroke="#22733B" stroke-width="2.45278" stroke-linecap="round" stroke-linejoin="round"/>
<path d="M215.152 134.894C212.502 159.596 204.901 213.072 195.696 229.36" stroke="#22733B" stroke-width="2.45278" stroke-linecap="round" stroke-linejoin="round"/>
<path d="M254.378 161.38C246.772 153.58 239.573 157.983 236.925 161.16C235.757 158.336 231.483 153.628 223.731 157.382C215.979 161.137 219.176 168.56 221.743 171.803C217.741 170.95 210.187 171.777 211.985 181.912C213.783 192.047 223.912 190.69 228.752 188.745C227.297 192.739 227.031 201.122 237.604 202.7C248.178 204.279 249.714 197.035 249.16 193.216C253.345 195.476 262.224 197.835 264.259 189.193C266.294 180.551 258.413 175.476 254.218 174.019C259.569 169.753 256.554 163.815 254.378 161.38Z" fill="#FFA39A"/>
<path d="M254.378 161.38C246.772 153.58 239.573 157.983 236.925 161.16C235.757 158.336 231.483 153.628 223.731 157.382C215.979 161.137 219.176 168.56 221.743 171.803C217.741 170.95 210.187 171.777 211.985 181.912C213.783 192.047 223.912 190.69 228.752 188.745C227.297 192.739 227.031 201.122 237.604 202.7C248.178 204.279 249.714 197.035 249.16 193.216C253.345 195.476 262.224 197.835 264.259 189.193C266.294 180.551 258.413 175.476 254.218 174.019C259.569 169.753 256.554 163.815 254.378 161.38Z" fill="#FFF8DA"/>
<ellipse cx="239.319" cy="177.742" rx="9.61319" ry="6.17321" transform="rotate(28.0869 239.319 177.742)" fill="#FF6C46"/>
<path d="M233.119 99.4984C223.714 93.9986 217.944 100.156 216.235 103.922C214.359 101.51 208.987 98.1064 202.511 103.785C196.035 109.464 201.089 115.771 204.425 118.216C200.341 118.456 193.278 121.261 197.703 130.554C202.129 139.847 211.534 135.848 215.683 132.687C215.341 136.924 217.311 145.077 227.924 143.79C238.537 142.502 238.094 135.111 236.546 131.576C241.181 132.643 250.367 132.559 250.033 123.687C249.7 114.815 240.754 112.016 236.322 111.725C240.347 106.191 235.864 101.268 233.119 99.4984Z" fill="#FFF8DA"/>
<path d="M182.576 132.33C169.484 130.56 165.897 140.143 165.74 145.156C162.515 143.331 154.915 142.026 150.315 151.402C145.714 160.779 154.313 165.483 159.187 166.663C154.727 168.837 148.129 175.27 157.416 183.608C166.704 191.947 175.367 183.085 178.537 177.611C180.131 182.514 186.138 190.721 197.417 184.33C208.697 177.94 204.753 169.873 201.372 166.639C207.057 165.671 217.301 161.294 212.79 151.518C208.279 141.743 196.96 142.781 191.864 144.522C193.789 136.451 186.474 133.031 182.576 132.33Z" fill="#FFF8DA"/>
<ellipse cx="180.413" cy="159.207" rx="11.6571" ry="7.48575" transform="rotate(-9.9357 180.413 159.207)" fill="#FF6C46"/>
<ellipse cx="238.866" cy="179.958" rx="9.61319" ry="4.58808" transform="rotate(28.0869 238.866 179.958)" fill="#D9D9D9"/>
<path d="M178.241 176.29C183.611 187.193 196.801 218.563 195.551 229.277" stroke="#22733B" stroke-width="2.45278" stroke-linecap="round" stroke-linejoin="round"/>
<path d="M215.173 134.845C212.523 159.548 204.923 213.024 195.718 229.312" stroke="#22733B" stroke-width="2.45278" stroke-linecap="round" stroke-linejoin="round"/>
<path d="M196.776 225.596C192.435 238.915 180.013 267.751 165.061 276.547" stroke="#22733B" stroke-width="2.45278" stroke-linecap="round" stroke-linejoin="round"/>
<path d="M254.378 161.38C246.772 153.58 239.573 157.983 236.925 161.16C235.757 158.336 231.483 153.628 223.731 157.382C215.979 161.137 219.176 168.56 221.743 171.803C217.741 170.95 210.187 171.777 211.985 181.912C213.783 192.047 223.912 190.69 228.752 188.745C227.297 192.739 227.031 201.122 237.604 202.7C248.178 204.279 249.714 197.035 249.16 193.216C253.345 195.476 262.224 197.835 264.259 189.193C266.294 180.551 258.413 175.476 254.218 174.019C259.569 169.753 256.554 163.815 254.378 161.38Z" fill="#FFA39A"/>
<path d="M254.378 161.38C246.772 153.58 239.573 157.983 236.925 161.16C235.757 158.336 231.483 153.628 223.731 157.382C215.979 161.137 219.176 168.56 221.743 171.803C217.741 170.95 210.187 171.777 211.985 181.912C213.783 192.047 223.912 190.69 228.752 188.745C227.297 192.739 227.031 201.122 237.604 202.7C248.178 204.279 249.714 197.035 249.16 193.216C253.345 195.476 262.224 197.835 264.259 189.193C266.294 180.551 258.413 175.476 254.218 174.019C259.569 169.753 256.554 163.815 254.378 161.38Z" fill="#FFF8DA"/>
<ellipse cx="239.319" cy="177.742" rx="9.61319" ry="6.17321" transform="rotate(28.0869 239.319 177.742)" fill="#FF6C46"/>
<path d="M233.119 99.4984C223.714 93.9986 217.944 100.156 216.235 103.922C214.359 101.51 208.987 98.1064 202.511 103.785C196.035 109.464 201.089 115.771 204.425 118.216C200.341 118.456 193.278 121.261 197.703 130.554C202.129 139.847 211.534 135.848 215.683 132.687C215.341 136.924 217.311 145.077 227.924 143.79C238.537 142.502 238.094 135.111 236.546 131.576C241.181 132.643 250.367 132.559 250.033 123.687C249.7 114.815 240.754 112.016 236.322 111.725C240.347 106.191 235.864 101.268 233.119 99.4984Z" fill="#FFF8DA"/>
<path d="M182.576 132.33C169.484 130.56 165.897 140.143 165.74 145.156C162.515 143.331 154.915 142.026 150.315 151.402C145.714 160.779 154.313 165.483 159.187 166.663C154.727 168.837 148.129 175.27 157.416 183.608C166.704 191.947 175.367 183.085 178.537 177.611C180.131 182.514 186.138 190.721 197.417 184.33C208.697 177.94 204.753 169.873 201.372 166.639C207.057 165.671 217.301 161.294 212.79 151.518C208.279 141.743 196.96 142.781 191.864 144.522C193.789 136.451 186.474 133.031 182.576 132.33Z" fill="#FFF8DA"/>
<ellipse cx="180.413" cy="159.207" rx="11.6571" ry="7.48575" transform="rotate(-9.9357 180.413 159.207)" fill="#FF6C46"/>
<ellipse cx="223.212" cy="119.195" rx="7.95259" ry="5.10684" transform="rotate(21.3492 223.212 119.195)" fill="#FF6C46"/>
<path d="M194.582 227.442C194.396 231.547 195.046 240.4 199.132 242.979C204.238 246.203 205.97 247.075 205.439 250.716C205.014 253.628 203.803 256.261 203.251 257.213" stroke="#F0C5BD" stroke-width="2.45278" stroke-linecap="round"/>
<path d="M194.582 227.442C193.587 231.428 193.127 238.261 188.475 239.565C182.66 241.195 185.947 244.153 185.415 247.794C184.99 250.706 179.587 253.76 177.767 253.494" stroke="#F0C5BD" stroke-width="2.45278" stroke-linecap="round"/>
<ellipse cx="136.917" cy="304.852" rx="65.5042" ry="22.331" transform="rotate(29.8987 136.917 304.852)" fill="#3D330D"/>
<path d="M125.181 41.2024L129.218 40.5089L128.525 36.4709L124.487 37.1645L125.181 41.2024Z" fill="#FDCD0B"/>
<path d="M118.496 200.778C129.325 199.999 131.684 191.583 131.509 187.472C131.928 197.338 140.391 200.423 144.57 200.731C134.543 201.508 131.717 210.242 131.557 214.511C130.738 204.646 122.508 201.245 118.496 200.778Z" fill="white"/>
<path d="M222.955 293.3C233.383 292.523 235.654 284.106 235.486 279.995C235.889 289.862 244.039 292.946 248.063 293.256C238.407 294.032 235.687 302.765 235.533 307.035C234.743 297.169 226.819 293.768 222.955 293.3Z" fill="white"/>
<path d="M158.399 93.527C169.02 91.2782 170.208 82.6187 169.474 78.57C171.235 88.2868 180.04 90.1872 184.222 89.9229C174.395 92.0608 172.787 101.098 173.212 105.35C171.053 95.6884 162.437 93.4424 158.399 93.527Z" fill="white"/>
<path fill-rule="evenodd" clip-rule="evenodd" d="M197.179 219.883C197.95 221.009 198.474 222.536 198.774 224.327C210.469 223.803 230.827 227.39 219.831 245.858C220.729 248.412 220.249 251.56 217.682 255.416C216.805 256.733 215.895 257.795 214.963 258.629C214.876 260.582 214.09 262.808 212.405 265.339C211.042 267.386 209.598 268.817 208.118 269.734C207.941 270.502 207.686 271.298 207.347 272.122C202.831 283.095 184.515 283.911 170.274 282.29L169.966 282.509L159.768 310.828C139.59 313.816 125.649 300.781 121.201 293.89C124.412 285.498 130.599 274.705 135.698 265.81C139.377 259.392 142.49 253.961 143.51 251.134C146.551 242.702 154.447 226.059 167.603 216.769C179.489 208.376 191.607 211.741 197.179 219.883Z" fill="url(#paint0_linear_741_7460)"/>
<path d="M178.331 236.506C176.548 245.4 176.722 257.179 186.271 256.828C198.208 256.389 199.158 230.48 196.261 223.777" stroke="#F0C5BD" stroke-width="1.93138" stroke-linecap="round"/>
<path d="M218.04 245.533C216.265 242.639 208.434 235.882 197.943 238.796" stroke="#F0C5BD" stroke-width="1.93138" stroke-linecap="round"/>
<path d="M213.233 257.13C211.458 254.236 203.327 249.475 194.446 251.036" stroke="#F0C5BD" stroke-width="1.93138" stroke-linecap="round"/>
<path d="M205.629 269.142C203.853 266.248 198.082 260.85 189.2 262.411C185.897 262.919 179.292 264.976 179.292 269.142C179.292 274.349 184.537 275.515 191.531 275.515" stroke="#F0C5BD" stroke-width="1.93138" stroke-linecap="round"/>
<path d="M168.548 297.974C142.293 292.777 131.561 280.735 128.686 273.63C128.327 272.744 127.099 272.438 126.459 273.149L112.881 288.236C112.52 288.637 112.483 289.237 112.796 289.676C126.958 309.543 150.606 315.996 161.566 316.841C162.062 316.879 162.515 316.586 162.702 316.125L169.428 299.57C169.706 298.886 169.273 298.117 168.548 297.974Z" fill="#FF311E" stroke="#FF311E" stroke-width="2.33134" stroke-linecap="round"/>
<line x1="125.275" y1="280.398" x2="120.065" y2="288.735" stroke="#FF7B6F" stroke-width="1.16567" stroke-linecap="round"/>
<line x1="130.825" y1="288.316" x2="123.649" y2="295.037" stroke="#FF7B6F" stroke-width="1.16567" stroke-linecap="round"/>
<line x1="137.779" y1="292.128" x2="133.106" y2="300.777" stroke="#FF7B6F" stroke-width="1.16567" stroke-linecap="round"/>
<path d="M148.062 302.325L149.568 308.154" stroke="#FF7B6F" stroke-width="1.16567" stroke-linecap="round"/>
<line x1="162.356" y1="302.492" x2="159.536" y2="311.91" stroke="#FF7B6F" stroke-width="1.16567" stroke-linecap="round"/>
<path d="M183.373 256.864C182.401 258.03 181.391 260.944 185.121 263.275" stroke="#F0C5BD" stroke-width="2.33134" stroke-linecap="round"/>
<rect x="5" y="1" width="323" height="430" rx="18" stroke="white" stroke-width="69.9401" mask="url(#path-1-inside-1_741_7460)"/>
</g>
<defs>
<filter id="filter0_d_741_7460" x="0.171557" y="0.0343115" width="332.657" height="439.657" filterUnits="userSpaceOnUse" color-interpolation-filters="sRGB">
<feFlood flood-opacity="0" result="BackgroundImageFix"/>
<feColorMatrix in="SourceAlpha" type="matrix" values="0 0 0 0 0 0 0 0 0 0 0 0 0 0 0 0 0 0 127 0" result="hardAlpha"/>
<feOffset dy="3.86275"/>
<feGaussianBlur stdDeviation="2.41422"/>
<feComposite in2="hardAlpha" operator="out"/>
<feColorMatrix type="matrix" values="0 0 0 0 0 0 0 0 0 0 0 0 0 0 0 0 0 0 0.1 0"/>
<feBlend mode="normal" in2="BackgroundImageFix" result="effect1_dropShadow_741_7460"/>
<feBlend mode="normal" in="SourceGraphic" in2="effect1_dropShadow_741_7460" result="shape"/>
</filter>
<linearGradient id="paint0_linear_741_7460" x1="211.347" y1="232.968" x2="129.168" y2="303.491" gradientUnits="userSpaceOnUse">
<stop offset="0.163761" stop-color="#FFE8E3"/>
<stop offset="1" stop-color="#FFCEC5"/>
</linearGradient>
</defs>
</svg>
