<svg width="323" height="430" viewBox="0 0 323 430" fill="none" xmlns="http://www.w3.org/2000/svg">
<g clip-path="url(#clip0_741_7683)">
<rect width="323" height="430" rx="28.5446" fill="#FFF0B4"/>
<path d="M98.29 386.295C104.424 386.49 116.658 383.777 116.522 371.366C116.286 368.064 114.142 361.648 107.453 362.401C104.856 362.849 102.098 366.961 107.388 372.19C110.411 375.178 116.257 377.679 123.455 369.417C132.453 359.089 126.531 352.907 126.324 352.626C125.669 351.736 121.017 348.026 116.165 351.872C111.314 355.718 117.293 364.213 124.109 363.036C129.723 362.151 139.743 356.878 134.919 342.869" stroke="#7ED4EF" stroke-width="2.30819" stroke-linecap="round"/>
<path d="M37.2922 104.486C37.6639 103.481 39.0851 103.481 39.4569 104.486L44.1908 117.279C44.3077 117.595 44.5567 117.844 44.8726 117.961L57.6658 122.694C58.6706 123.066 58.6706 124.487 57.6658 124.859L44.9293 129.572C44.5812 129.701 44.3163 129.989 44.2174 130.347L39.4869 147.46C39.1749 148.588 37.5742 148.588 37.2621 147.46L32.5316 130.347C32.4327 129.989 32.1678 129.701 31.8197 129.572L19.0833 124.859C18.0785 124.487 18.0785 123.066 19.0833 122.694L31.8764 117.961C32.1923 117.844 32.4414 117.595 32.5583 117.279L37.2922 104.486Z" fill="#71CCFF"/>
<path fill-rule="evenodd" clip-rule="evenodd" d="M255.525 -10.2789C256.422 -10.6103 257.418 -10.152 257.749 -9.25521L261.899 1.97394L270.364 -6.49142C271.04 -7.16747 272.136 -7.16747 272.812 -6.49142C273.489 -5.81537 273.489 -4.71927 272.812 -4.04322L263.379 5.39045L278.223 9.11284C279.15 9.3454 279.713 10.2857 279.481 11.2131C279.248 12.1404 278.308 12.7037 277.38 12.4711L264.593 9.26448L269.797 23.3441C270.128 24.2409 269.67 25.2366 268.773 25.568C267.876 25.8995 266.88 25.4411 266.549 24.5443L260.525 8.2443L260.525 8.24428L248.237 20.5318C247.561 21.2078 246.465 21.2078 245.789 20.5318C245.113 19.8557 245.113 18.7596 245.789 18.0836L256.61 7.26257L243.67 4.01746C242.742 3.7849 242.179 2.8446 242.412 1.91723C242.644 0.989861 243.585 0.426606 244.512 0.659165L259.071 4.31021L254.501 -8.05501C254.17 -8.95181 254.628 -9.94748 255.525 -10.2789Z" fill="#5ABD7B"/>
<path fill-rule="evenodd" clip-rule="evenodd" d="M207.054 391.346C207.951 391.014 208.947 391.473 209.278 392.369L213.428 403.598L221.894 395.133C222.57 394.457 223.666 394.457 224.342 395.133C225.018 395.809 225.018 396.905 224.342 397.581L214.908 407.015L229.752 410.737C230.679 410.97 231.242 411.91 231.01 412.838C230.777 413.765 229.837 414.328 228.91 414.096L216.123 410.889L221.326 424.969C221.657 425.865 221.199 426.861 220.302 427.193C219.405 427.524 218.41 427.066 218.078 426.169L212.054 409.869L212.054 409.869L199.767 422.156C199.091 422.832 197.995 422.832 197.319 422.156C196.643 421.48 196.643 420.384 197.319 419.708L208.14 408.887L195.199 405.642C194.272 405.409 193.709 404.469 193.941 403.542C194.174 402.614 195.114 402.051 196.041 402.284L210.6 405.935L206.031 393.57C205.699 392.673 206.158 391.677 207.054 391.346Z" fill="#5ABD7B"/>
<path fill-rule="evenodd" clip-rule="evenodd" d="M226.15 294.657C223.345 294.378 220.748 295.547 219.179 297.528C217.924 295.731 215.863 294.458 213.435 294.217C209.159 293.792 205.365 296.732 204.963 300.783C204.906 301.355 204.92 301.918 204.997 302.465C204.2 302.099 203.325 301.856 202.396 301.763C198.119 301.339 194.326 304.278 193.923 308.33C193.521 312.382 196.661 316.01 200.938 316.435C201.529 316.494 202.111 316.488 202.676 316.425C201.997 317.394 201.554 318.533 201.43 319.777C201.028 323.828 204.168 327.457 208.445 327.882C211.093 328.145 213.557 327.118 215.144 325.335C216.281 327.618 218.614 329.304 221.446 329.585C225.026 329.941 228.267 327.938 229.464 324.9C230.557 327.295 232.949 329.082 235.872 329.372C239.393 329.722 242.587 327.791 243.83 324.836C245.027 326.927 247.257 328.445 249.931 328.711C254.207 329.136 258 326.196 258.403 322.144C258.561 320.551 258.172 319.024 257.381 317.73C258.286 318.211 259.305 318.53 260.399 318.638C264.675 319.063 268.468 316.123 268.871 312.072C269.274 308.02 266.133 304.391 261.856 303.967C261.272 303.908 260.697 303.913 260.138 303.975C260.216 303.655 260.273 303.326 260.307 302.989C260.709 298.938 257.569 295.309 253.292 294.884C250.643 294.621 248.18 295.649 246.593 297.431C245.456 295.148 243.123 293.462 240.291 293.181C236.541 292.808 233.163 295.023 232.116 298.305C230.891 296.332 228.727 294.913 226.15 294.657Z" fill="#FFBABA"/>
<path fill-rule="evenodd" clip-rule="evenodd" d="M-4.66987 392.754C-7.47517 392.476 -10.0725 393.645 -11.6411 395.626C-12.8964 393.829 -14.9578 392.556 -17.3852 392.314C-21.6618 391.889 -25.455 394.829 -25.8575 398.881C-25.9143 399.453 -25.9005 400.016 -25.823 400.563C-26.6201 400.197 -27.4956 399.953 -28.4246 399.861C-32.7012 399.436 -36.4944 402.376 -36.8969 406.428C-37.2994 410.479 -34.1588 414.108 -29.8823 414.533C-29.2913 414.592 -28.7095 414.586 -28.1447 414.522C-28.8234 415.491 -29.2666 416.631 -29.3902 417.874C-29.7927 421.926 -26.6522 425.555 -22.3756 425.98C-19.7269 426.243 -17.2636 425.215 -15.6765 423.432C-14.5396 425.715 -12.2061 427.401 -9.37454 427.683C-5.79444 428.038 -2.55313 426.036 -1.35617 422.997C-0.262894 425.393 2.12911 427.179 5.05164 427.47C8.57283 427.82 11.7663 425.888 13.0093 422.934C14.2066 425.025 16.4364 426.543 19.1104 426.808C23.387 427.233 27.1802 424.293 27.5827 420.242C27.741 418.649 27.3515 417.121 26.5606 415.828C27.4654 416.309 28.4848 416.627 29.5784 416.736C33.855 417.161 37.6482 414.221 38.0507 410.169C38.4532 406.118 35.3126 402.489 31.036 402.064C30.4517 402.006 29.8763 402.011 29.3174 402.073C29.396 401.753 29.4528 401.424 29.4863 401.087C29.8888 397.036 26.7482 393.407 22.4716 392.982C19.823 392.719 17.3598 393.746 15.7726 395.529C14.6358 393.246 12.3022 391.56 9.4706 391.279C5.72087 390.906 2.34279 393.12 1.29604 396.403C0.0705338 394.429 -2.09352 393.01 -4.66987 392.754Z" fill="#FFBABA"/>
<path d="M150.706 32.9117L143.974 48.8843C143.89 49.0824 143.756 49.2509 143.581 49.3753C138.846 52.7344 129.553 59.4282 128.227 60.776C126.953 62.071 135.837 63.4678 141.22 64.1028C141.766 64.1672 142.193 64.6035 142.242 65.1509L143.583 80.1502C143.676 81.1972 145.007 81.5841 145.647 80.7506L153.78 70.1666C154.134 69.7057 154.776 69.5801 155.278 69.8735L169.294 78.0679C170.115 78.5477 171.131 77.885 171.023 76.9405L169.22 61.1705C169.19 60.9149 169.247 60.6568 169.382 60.4373L177.81 46.6514C178.28 45.8824 177.727 44.8953 176.825 44.8953H163.384C163.041 44.8953 162.715 44.7424 162.496 44.4782L152.658 32.623C152.105 31.9567 151.043 32.1139 150.706 32.9117Z" fill="#FDCD0B" stroke="#FDCD0B" stroke-width="3.46228" stroke-linecap="round"/>
<path d="M369.037 171.381C291.728 95.7457 174.259 62.9844 125.189 56.0581C44.9895 119.226 -13.5943 268.003 -32.8613 334.495C42.2801 324.521 162.819 392.676 213.696 428C257.77 301.664 335.621 204.281 369.037 171.381Z" fill="#DAE7FF" stroke="black" stroke-width="2"/>
<path d="M193.868 102.121C194.371 102.361 194.562 102.698 194.441 103.134L193.471 106.631C193.329 107.144 194.387 107.856 196.645 108.767C196.572 109.031 196.589 109.454 196.695 110.036C194.793 111.886 193.754 113.129 193.577 113.767L198.437 118.881C198.034 119.305 197.794 119.657 197.717 119.936C197.002 119.738 195.089 118.095 191.978 115.006L191.582 114.896C189.594 116.571 188.405 117.355 188.017 117.247L187.064 116.154C191.624 112.748 193.986 110.75 194.15 110.159L194.26 109.763L187.265 107.823C186.752 107.681 186.567 107.354 186.709 106.841L187.802 105.888L190.42 107.041L190.816 107.151C191.329 107.293 191.659 107.1 191.805 106.571L192.879 102.701C193.103 102.194 193.433 102 193.868 102.121ZM192.68 118.54L193.053 118.644C193.56 118.868 193.754 119.198 193.633 119.633L192.12 125.089C192.056 125.624 192.241 125.951 192.676 126.072L195.008 126.718L197.846 127.078L197.999 127.975L197.896 128.348C197.749 128.876 197.42 129.069 196.907 128.927L196.137 128.714C194.365 128.222 192.776 127.916 191.37 127.794C185.526 125.688 182.72 124.215 182.953 123.376C183.056 123.003 183.553 122.722 184.442 122.533C185.264 123.314 187.099 124.241 189.948 125.315L191.674 119.09C191.91 118.603 192.245 118.419 192.68 118.54ZM220.793 117.22C221.501 117.684 221.676 118.561 221.319 119.851L219.922 124.888C219.853 125.438 220.044 125.775 220.495 125.9L222.034 126.327L225.801 127.773L226.624 126.344C226.689 126.111 226.843 125.041 227.088 123.133C227.856 121.388 228.497 120.586 229.01 120.728L229.78 120.942C229.633 121.47 229.692 121.771 229.956 121.844C229.285 123.6 228.779 124.431 228.437 124.336L228.273 126.374L227.2 130.245C226.838 131.551 226.431 133.531 225.98 136.184L225.107 136.344C224.688 136.228 224.65 133.857 224.995 129.232L219.562 127.726L219.459 128.099L218.775 132.103L217.396 132.549C216.868 132.402 216.675 132.073 216.817 131.56L217.037 130.767C218.799 122.417 219.76 117.954 219.92 117.379L220.793 117.22ZM213.681 117.332C213.616 117.866 213.802 118.194 214.237 118.315C213.835 118.739 213.595 119.091 213.517 119.371C210.868 118.904 208.898 118.492 207.608 118.134L206.442 117.811L206.009 119.373C204.888 123.415 204.889 125.917 206.011 126.881L211.048 128.278C211.638 128.442 212.194 128.462 212.713 128.338C213.142 128.724 213.496 128.957 213.776 129.034L213.562 129.804C213.347 130.581 210.915 130.325 206.267 129.037L204.309 128.493C203.345 128.226 203.337 124.751 204.287 118.067L204.72 116.505C204.879 115.929 207.866 116.205 213.681 117.332ZM251.588 124.427L251.961 124.53L252.644 125.146L251.497 127.741L251.387 128.138C250.883 129.956 251.152 131.01 252.193 131.299C255.212 132.487 256.624 133.431 256.43 134.131L256.21 134.924L255.814 134.814C255.394 134.697 253.876 134.134 251.26 133.124C251.187 133.389 251.018 133.484 250.754 133.411C251.02 134.506 250.997 135.613 250.687 136.732C250.545 137.245 250.209 137.428 249.681 137.282L249.308 137.178C248.733 137.019 248.925 133.306 249.885 126.039C250.569 124.839 251.137 124.302 251.588 124.427ZM236.322 120.621L242.92 122.451C243.122 122.507 243.403 123.003 243.763 123.94C240.545 127.517 238.865 129.562 238.722 130.075L242.039 137.674L241.716 138.84L240.573 138.523C238.464 133.753 237.184 131.306 236.733 131.181L233.059 133.929L232.266 133.709L232.693 132.17C238.044 127.962 240.849 125.392 241.108 124.459L239.789 123.24C237.508 122.892 235.653 122.52 234.223 122.123C233.71 121.981 233.524 121.653 233.667 121.14C234.146 120.436 235.031 120.263 236.322 120.621ZM243.615 141.048C249.055 142.557 251.345 144.866 250.483 147.975L249.623 151.076C247.888 153.106 245.886 153.806 243.617 153.177L243.22 153.067C239.085 151.921 237.591 149.28 238.737 145.145C239.19 143.513 240.816 142.147 243.615 141.048ZM240.673 145.682L240.136 147.617C240.833 149.752 242.138 151.085 244.05 151.615C245.775 152.093 247.335 150.994 248.73 148.317C249.377 145.986 247.881 144.316 244.244 143.307C242.627 142.859 241.437 143.65 240.673 145.682Z" fill="#2F4380"/>
<path d="M176.769 67.0059C142.081 67.0058 100.455 88.975 83.9782 99.9596C81.6532 101.467 69.4407 118.466 63.625 126.777C124.24 84.9393 182.099 73.0371 198.015 73.5099L176.769 67.0059Z" fill="white" stroke="black" stroke-width="2"/>
<path d="M301.683 119.588C322.057 142.206 330.182 184.052 331.697 202.148C331.943 204.673 326.485 224.013 323.725 233.367C319.21 165.842 294.071 120.149 284.372 110.087L301.683 119.588Z" fill="white" stroke="black" stroke-width="2"/>
<path d="M173.132 109.761C173.616 104.587 168.799 104.742 166.159 105.529C165.689 105.668 165.172 105.452 164.953 105.014C163.165 101.432 160.334 100.826 158.911 101.7C155.352 103.887 155.103 108.264 155.847 110.827C157.228 115.587 159.043 117.97 159.544 118.19C160.003 118.391 163.867 118.081 168.022 115.62C171.346 113.651 173.023 110.919 173.132 109.761Z" fill="#FF7C7C" stroke="black" stroke-width="1.45501" stroke-linecap="round"/>
<path d="M283.106 154.169C283.59 148.995 278.773 149.15 276.133 149.936C275.664 150.076 275.146 149.86 274.927 149.421C273.14 145.839 270.309 145.233 268.886 146.108C265.326 148.295 265.078 152.671 265.821 155.235C267.202 159.995 269.018 162.377 269.519 162.597C269.977 162.799 273.842 162.488 277.996 160.028C281.32 158.059 282.998 155.327 283.106 154.169Z" fill="#FF7C7C" stroke="black" stroke-width="1.45501" stroke-linecap="round"/>
<path fill-rule="evenodd" clip-rule="evenodd" d="M18.4122 21.1363C15.6069 20.8576 13.0096 22.0268 11.4409 24.0078C10.1856 22.2108 8.12424 20.9374 5.69684 20.6962C1.42024 20.2713 -2.37293 23.2113 -2.77545 27.2628C-2.83225 27.8345 -2.8185 28.3978 -2.74095 28.9449C-3.5381 28.5787 -4.41353 28.3352 -5.34257 28.2429C-9.61917 27.818 -13.4123 30.758 -13.8149 34.8095C-14.2174 38.861 -11.0768 42.4898 -6.80022 42.9147C-6.20924 42.9734 -5.62749 42.9679 -5.06264 42.904C-5.74136 43.8732 -6.18459 45.0124 -6.30817 46.2563C-6.71069 50.3078 -3.57013 53.9367 0.706463 54.3616C3.35515 54.6247 5.81841 53.5971 7.40554 51.8142C8.5424 54.0973 10.8759 55.7832 13.7075 56.0645C17.2876 56.4202 20.5289 54.4178 21.7259 51.3793C22.8191 53.7745 25.2111 55.5612 28.1337 55.8515C31.6549 56.2013 34.8483 54.2701 36.0913 51.3154C37.2886 53.4063 39.5185 54.9246 42.1924 55.1902C46.469 55.6151 50.2622 52.6751 50.6647 48.6236C50.823 47.0307 50.4335 45.503 49.6426 44.2098C50.5474 44.691 51.5668 45.0092 52.6604 45.1178C56.937 45.5427 60.7302 42.6027 61.1327 38.5512C61.5352 34.4997 58.3947 30.8709 54.1181 30.446C53.5337 30.3879 52.9583 30.3927 52.3994 30.4546C52.478 30.1346 52.5349 29.8056 52.5683 29.4689C52.9708 25.4174 49.8303 21.7886 45.5537 21.3637C42.905 21.1006 40.4418 22.1281 38.8547 23.911C37.7179 21.6277 35.3843 19.9418 32.5526 19.6605C28.8029 19.2879 25.4248 21.5022 24.3781 24.7845C23.1526 22.811 20.9885 21.3923 18.4122 21.1363Z" fill="#FFBABA"/>
<path d="M270.734 343.363L264.001 359.335C263.918 359.534 263.784 359.702 263.608 359.826C258.874 363.186 249.58 369.879 248.254 371.227C246.981 372.522 255.864 373.919 261.248 374.554C261.794 374.618 262.22 375.055 262.269 375.602L263.61 390.601C263.704 391.648 265.034 392.035 265.675 391.202L273.807 380.618C274.161 380.157 274.803 380.031 275.305 380.325L289.321 388.519C290.142 388.999 291.158 388.336 291.05 387.392L289.247 371.622C289.218 371.366 289.275 371.108 289.409 370.889L297.837 357.103C298.308 356.334 297.754 355.346 296.853 355.346H283.412C283.068 355.346 282.743 355.194 282.524 354.929L272.685 343.074C272.133 342.408 271.07 342.565 270.734 343.363Z" fill="#FDCD0B" stroke="#FDCD0B" stroke-width="3.46228" stroke-linecap="round"/>
<path d="M58.7592 399.84L68.7555 414.001C68.8795 414.176 68.9517 414.379 68.9645 414.594C69.3117 420.389 70.0784 431.816 70.5213 433.654C70.9469 435.42 76.8302 428.619 80.216 424.386C80.5593 423.956 81.1551 423.825 81.6456 424.073L95.0852 430.866C96.0234 431.341 97.0554 430.416 96.6866 429.432L92.0042 416.932C91.8003 416.388 92.033 415.777 92.5474 415.506L106.914 407.943C107.756 407.5 107.731 406.287 106.872 405.879L92.5335 399.071C92.3011 398.961 92.1122 398.776 91.9969 398.546L84.7533 384.102C84.3492 383.296 83.2188 383.244 82.7421 384.009L75.6344 395.417C75.4528 395.708 75.1509 395.904 74.8107 395.95L59.5462 398.031C58.6883 398.148 58.2599 399.133 58.7592 399.84Z" fill="#FDCD0B" stroke="#FDCD0B" stroke-width="3.46228" stroke-linecap="round"/>
<path d="M233.153 70.0737C227.019 70.2685 214.785 67.5553 214.922 55.144C215.158 51.8419 217.301 45.4262 223.99 46.1796C226.587 46.6278 229.345 50.7391 224.056 55.9683C221.033 58.9564 215.186 61.4572 207.988 53.1951C198.99 42.8675 204.913 36.6857 205.12 36.4043C205.775 35.5145 210.426 31.8048 215.278 35.6506C220.13 39.4964 214.151 47.9911 207.334 46.8146C201.721 45.9293 191.7 40.6565 196.525 26.6476" stroke="#7ED4EF" stroke-width="2.30819" stroke-linecap="round"/>
<path d="M335.728 327.454C329.594 327.649 317.36 324.936 317.496 312.524C317.732 309.222 319.875 302.807 326.564 303.56C329.161 304.008 331.92 308.119 326.63 313.349C323.607 316.337 317.76 318.838 310.562 310.575C301.564 300.248 307.487 294.066 307.694 293.785C308.349 292.895 313 289.185 317.852 293.031C322.704 296.877 316.725 305.372 309.908 304.195C304.295 303.31 294.274 298.037 299.099 284.028" stroke="white" stroke-width="2.30819" stroke-linecap="round"/>
</g>
<defs>
<clipPath id="clip0_741_7683">
<rect width="323" height="430" rx="28.5446" fill="white"/>
</clipPath>
</defs>
</svg>
