<svg width="333" height="439" viewBox="0 0 333 439" fill="none" xmlns="http://www.w3.org/2000/svg">
<g filter="url(#filter0_d_741_7416)">
<g clip-path="url(#clip0_741_7416)">
<rect x="5" y="1" width="323" height="430" rx="18" fill="#7976FF"/>
<rect x="-27.5312" y="274.862" width="298.339" height="169.355" fill="#FFD844" stroke="#0066FF" stroke-width="4"/>
<path d="M271.895 287.715C271.599 317.836 251.833 345.215 219.484 365.04C187.161 384.849 142.535 396.924 93.2728 396.44C44.0107 395.956 -0.370066 383.006 -32.2968 362.567C-64.251 342.11 -83.4751 314.348 -83.1792 284.227C-82.8833 254.106 -63.1175 226.727 -30.7676 206.902C1.55456 187.094 46.1812 175.018 95.4432 175.502C144.705 175.986 189.086 188.936 221.013 209.375C252.967 229.832 272.191 257.594 271.895 287.715Z" fill="#FFD844" stroke="#0066FF" stroke-width="4"/>
<path d="M87.9985 153.729C102.294 145.673 100.519 134.862 97.8447 130.463C115.349 130.463 121.916 144.701 119.728 150.951C132.565 152.896 137.601 164.495 133.221 172.134C145.259 176.302 146.289 190.887 142.699 195.748C129.571 213.528 98.2093 212.417 82.8931 205.819C63.9302 193.595 73.047 179.195 79.9758 173.523C76.6937 170.282 73.7034 161.786 87.9985 153.729Z" fill="white"/>
<path d="M133.221 172.134C145.259 176.302 146.289 190.887 142.699 195.748C129.571 213.528 98.2093 212.417 82.8931 205.819C63.9302 193.595 73.047 179.195 79.9758 173.523C76.6937 170.282 73.7034 161.786 87.9985 153.729C102.294 145.673 100.519 134.862 97.8447 130.463C115.349 130.463 121.916 144.701 119.728 150.951M133.221 172.134C137.601 164.495 132.565 152.896 119.728 150.951M133.221 172.134C130.548 174.797 126.657 179.08 114.258 179.08M119.728 150.951C118.634 153.035 114.915 156.994 108.788 156.16" stroke="#0066FF" stroke-width="4" stroke-linecap="round"/>
<path d="M79.9785 173.523C81.9234 175.376 85.4486 180.816 102.588 179.427" stroke="#0066FF" stroke-width="4" stroke-linecap="round"/>
<path d="M14.7349 160.954C29.03 152.898 27.2552 142.086 24.581 137.688C42.0852 137.688 48.6528 151.925 46.4648 158.176C59.3012 160.121 64.3371 171.719 59.9576 179.359C71.9952 183.526 73.0253 198.111 69.4356 202.973C56.3074 220.753 24.9457 219.641 9.62945 213.043C-9.33346 200.82 -0.216675 186.42 6.71208 180.748C3.43004 177.507 0.439733 169.011 14.7349 160.954Z" fill="white"/>
<path d="M59.9576 179.359C71.9952 183.526 73.0253 198.111 69.4356 202.973C56.3074 220.753 24.9457 219.641 9.62945 213.043C-9.33346 200.82 -0.216675 186.42 6.71208 180.748C3.43004 177.507 0.439733 169.011 14.7349 160.954C29.03 152.898 27.2552 142.086 24.581 137.688C42.0852 137.688 48.6528 151.925 46.4648 158.176M59.9576 179.359C64.3371 171.719 59.3012 160.121 46.4648 158.176M59.9576 179.359C57.2845 182.021 53.3935 186.304 40.9947 186.304M46.4648 158.176C45.3707 160.26 41.6511 164.218 35.5246 163.385" stroke="#0066FF" stroke-width="4" stroke-linecap="round"/>
<path d="M6.71484 180.748C8.65976 182.6 12.1849 188.041 29.3245 186.652" stroke="#0066FF" stroke-width="4" stroke-linecap="round"/>
<path d="M153.006 178.495C167.301 170.438 165.527 159.627 162.852 155.228C180.357 155.228 186.924 169.466 184.736 175.717C197.573 177.661 202.609 189.26 198.229 196.9C210.267 201.067 211.297 215.652 207.707 220.513C194.579 238.293 163.217 237.182 147.901 230.584C128.938 218.36 138.055 203.961 144.984 198.289C141.702 195.047 138.711 186.551 153.006 178.495Z" fill="white"/>
<path d="M198.229 196.9C210.267 201.067 211.297 215.652 207.707 220.513C194.579 238.293 163.217 237.182 147.901 230.584C128.938 218.36 138.055 203.961 144.984 198.289C141.702 195.047 138.711 186.551 153.006 178.495C167.301 170.438 165.527 159.627 162.852 155.228C180.357 155.228 186.924 169.466 184.736 175.717M198.229 196.9C202.609 189.26 197.573 177.661 184.736 175.717M198.229 196.9C195.556 199.562 191.665 203.845 179.266 203.845M184.736 175.717C183.642 177.8 179.923 181.759 173.796 180.925" stroke="#0066FF" stroke-width="4" stroke-linecap="round"/>
<path d="M144.986 198.289C146.931 200.141 150.456 205.581 167.596 204.192" stroke="#0066FF" stroke-width="4" stroke-linecap="round"/>
<path d="M21.3368 276.451L25.4663 277.905L26.9197 273.775L22.7901 272.322L21.3368 276.451Z" fill="#87D4FF"/>
<path d="M202.536 218.739C216.831 210.682 215.056 199.871 212.382 195.472C229.886 195.472 236.454 209.71 234.266 215.961C247.102 217.905 252.138 229.504 247.758 237.144C259.796 241.311 260.826 255.896 257.236 260.758C244.108 278.537 212.746 277.426 197.43 270.828C178.467 258.604 187.584 244.205 194.513 238.533C191.231 235.292 188.241 226.795 202.536 218.739Z" fill="white"/>
<path d="M247.758 237.144C259.796 241.311 260.826 255.896 257.236 260.758C244.108 278.537 212.746 277.426 197.43 270.828C178.467 258.604 187.584 244.205 194.513 238.533C191.231 235.292 188.241 226.795 202.536 218.739C216.831 210.682 215.056 199.871 212.382 195.472C229.886 195.472 236.454 209.71 234.266 215.961M247.758 237.144C252.138 229.504 247.102 217.905 234.266 215.961M247.758 237.144C245.085 239.806 241.194 244.089 228.795 244.089M234.266 215.961C233.172 218.044 229.452 222.003 223.325 221.17" stroke="#0066FF" stroke-width="4" stroke-linecap="round"/>
<path d="M194.516 238.533C196.461 240.385 199.986 245.825 217.125 244.436" stroke="#0066FF" stroke-width="4" stroke-linecap="round"/>
<path d="M210.791 269.299C225.087 261.243 223.312 250.431 220.638 246.033C238.142 246.033 244.709 260.27 242.521 266.521C255.358 268.466 260.394 280.064 256.014 287.704C268.052 291.871 269.082 306.456 265.492 311.318C252.364 329.098 221.002 327.987 205.686 321.389C186.723 309.165 195.84 294.765 202.769 289.093C199.487 285.852 196.496 277.356 210.791 269.299Z" fill="white"/>
<path d="M256.014 287.704C268.052 291.871 269.082 306.456 265.492 311.318C252.364 329.098 221.002 327.987 205.686 321.389C186.723 309.165 195.84 294.765 202.769 289.093C199.487 285.852 196.496 277.356 210.791 269.299C225.087 261.243 223.312 250.431 220.638 246.033C238.142 246.033 244.709 260.27 242.521 266.521M256.014 287.704C260.394 280.064 255.358 268.466 242.521 266.521M256.014 287.704C253.341 290.367 249.45 294.649 237.051 294.649M242.521 266.521C241.427 268.605 237.708 272.564 231.581 271.73" stroke="#0066FF" stroke-width="4" stroke-linecap="round"/>
<path d="M202.771 289.093C204.716 290.945 208.242 296.385 225.381 294.996" stroke="#0066FF" stroke-width="4" stroke-linecap="round"/>
<path d="M110.7 336.371C124.995 328.315 123.22 317.503 120.546 313.104C138.05 313.104 144.618 327.342 142.43 333.593C155.266 335.538 160.302 347.136 155.922 354.776C167.96 358.943 168.99 373.528 165.4 378.39C152.272 396.17 120.91 395.058 105.594 388.46C86.6314 376.237 95.7482 361.837 102.677 356.165C99.3949 352.924 96.4046 344.428 110.7 336.371Z" fill="white"/>
<path d="M155.922 354.776C167.96 358.943 168.99 373.528 165.4 378.39C152.272 396.17 120.911 395.058 105.594 388.46C86.6314 376.237 95.7482 361.837 102.677 356.165C99.3949 352.924 96.4046 344.428 110.7 336.371C124.995 328.315 123.22 317.503 120.546 313.104C138.05 313.104 144.618 327.342 142.43 333.593M155.922 354.776C160.302 347.136 155.266 335.538 142.43 333.593M155.922 354.776C153.249 357.438 149.358 361.721 136.96 361.721M142.43 333.593C141.336 335.677 137.616 339.635 131.489 338.802" stroke="#0066FF" stroke-width="4" stroke-linecap="round"/>
<path d="M102.68 356.165C104.625 358.017 108.15 363.458 125.289 362.069" stroke="#0066FF" stroke-width="4" stroke-linecap="round"/>
<path d="M174.676 308.51C188.971 300.454 187.197 289.642 184.522 285.244C202.027 285.244 208.594 299.481 206.406 305.732C219.243 307.677 224.279 319.275 219.899 326.915C231.937 331.082 232.967 345.667 229.377 350.529C216.249 368.309 184.887 367.198 169.571 360.6C150.608 348.376 159.725 333.976 166.653 328.304C163.371 325.063 160.381 316.567 174.676 308.51Z" fill="white"/>
<path d="M219.899 326.915C231.937 331.082 232.967 345.667 229.377 350.529C216.249 368.309 184.887 367.198 169.571 360.6C150.608 348.376 159.725 333.976 166.653 328.304C163.371 325.063 160.381 316.567 174.676 308.51C188.971 300.454 187.197 289.642 184.522 285.244C202.027 285.244 208.594 299.481 206.406 305.732M219.899 326.915C224.279 319.275 219.243 307.677 206.406 305.732M219.899 326.915C217.226 329.577 213.335 333.86 200.936 333.86M206.406 305.732C205.312 307.816 201.592 311.775 195.466 310.941" stroke="#0066FF" stroke-width="4" stroke-linecap="round"/>
<path d="M166.656 328.304C168.601 330.156 172.126 335.597 189.266 334.208" stroke="#0066FF" stroke-width="4" stroke-linecap="round"/>
<path d="M34.3423 333.277C48.6374 325.221 46.8627 314.409 44.1884 310.011C61.6926 310.011 68.2602 324.249 66.0722 330.499C78.9086 332.444 83.9446 344.042 79.565 351.682C91.6027 355.849 92.6327 370.434 89.043 375.296C75.9148 393.076 44.5531 391.965 29.2369 385.367C10.274 373.143 19.3907 358.743 26.3195 353.071C23.0375 349.83 20.0472 341.334 34.3423 333.277Z" fill="white"/>
<path d="M79.565 351.682C91.6027 355.849 92.6327 370.434 89.043 375.296C75.9148 393.076 44.5531 391.965 29.2369 385.367C10.274 373.143 19.3907 358.743 26.3195 353.071C23.0375 349.83 20.0472 341.334 34.3423 333.277C48.6374 325.221 46.8627 314.409 44.1884 310.011C61.6926 310.011 68.2602 324.249 66.0722 330.499M79.565 351.682C83.9446 344.042 78.9086 332.444 66.0722 330.499M79.565 351.682C76.8919 354.345 73.0009 358.627 60.6021 358.627M66.0722 330.499C64.9782 332.583 61.2585 336.542 55.132 335.708" stroke="#0066FF" stroke-width="4" stroke-linecap="round"/>
<path d="M26.3223 353.071C28.2672 354.923 31.7923 360.364 48.9319 358.975" stroke="#0066FF" stroke-width="4" stroke-linecap="round"/>
<path d="M86.5456 94.06C95.6832 95.5988 103.173 118.987 105.284 128.079C93.8268 96.5867 86.8281 93.0061 82.3667 96.9267C79.7257 99.2476 75.1236 92.1363 86.5456 94.06Z" fill="#FF1F1F" stroke="#0066FF" stroke-width="4"/>
<path d="M125.654 135.511C124.654 114.514 108.617 116.355 102.612 119.673C95.3995 117.74 89.4411 121.449 87.3635 123.546C73.6956 136.368 89.6243 155.416 96.2349 158.324C106.22 164.944 126.914 161.963 125.654 135.511Z" fill="#FF3737" stroke="#0066FF" stroke-width="4"/>
<rect x="117.887" y="123.583" width="8.78527" height="5.49079" rx="0.995381" transform="rotate(69.5815 117.887 123.583)" fill="#FFC9C9"/>
<rect x="95.2637" y="125.9" width="8.78527" height="4.8534" rx="2.4267" transform="rotate(120.237 95.2637 125.9)" fill="white"/>
<path d="M208.307 158.037C217.445 159.576 224.935 182.964 227.046 192.057C215.589 160.564 208.59 156.984 204.128 160.904C201.487 163.225 196.885 156.114 208.307 158.037Z" fill="#FF1F1F" stroke="#0066FF" stroke-width="4"/>
<path d="M247.416 199.488C246.416 178.491 230.379 180.333 224.374 183.65C217.161 181.718 211.203 185.427 209.125 187.523C195.457 200.346 211.386 219.394 217.997 222.302C227.981 228.922 248.676 225.941 247.416 199.488Z" fill="#FF3737" stroke="#0066FF" stroke-width="4"/>
<rect x="239.648" y="187.56" width="8.78527" height="5.49079" rx="0.995381" transform="rotate(69.5815 239.648 187.56)" fill="#FFC9C9"/>
<rect x="217.025" y="189.877" width="8.78527" height="4.8534" rx="2.4267" transform="rotate(120.237 217.025 189.877)" fill="white"/>
<path d="M107.184 276.702C116.322 278.24 123.812 301.628 125.923 310.721C114.465 279.228 107.467 275.648 103.005 279.568C100.364 281.889 95.7623 274.778 107.184 276.702Z" fill="#FF1F1F" stroke="#0066FF" stroke-width="4"/>
<path d="M146.293 318.152C145.293 297.156 129.256 298.997 123.251 302.315C116.038 300.382 110.08 304.091 108.002 306.187C94.3342 319.01 110.263 338.058 116.874 340.966C126.858 347.586 147.553 344.605 146.293 318.152Z" fill="#FF3737" stroke="#0066FF" stroke-width="4"/>
<rect x="138.525" y="306.224" width="8.78527" height="5.49079" rx="0.995381" transform="rotate(69.5815 138.525 306.224)" fill="#FFC9C9"/>
<rect x="115.902" y="308.542" width="8.78527" height="4.8534" rx="2.4267" transform="rotate(120.237 115.902 308.542)" fill="white"/>
<path d="M26.7055 425.063C192.218 445.841 260.941 384.027 269.711 348.189V393.49C214.403 469.836 88.1019 459.931 31.8649 445.434L1.49994 442.5C-0.666725 429.5 -3.50006 405.3 2.49994 412.5C8.49994 419.7 21.137 423.876 26.7055 425.063Z" fill="#0066FF"/>
</g>
</g>
<defs>
<filter id="filter0_d_741_7416" x="0.812641" y="0.162528" width="331.375" height="438.375" filterUnits="userSpaceOnUse" color-interpolation-filters="sRGB">
<feFlood flood-opacity="0" result="BackgroundImageFix"/>
<feColorMatrix in="SourceAlpha" type="matrix" values="0 0 0 0 0 0 0 0 0 0 0 0 0 0 0 0 0 0 127 0" result="hardAlpha"/>
<feOffset dy="3.34989"/>
<feGaussianBlur stdDeviation="2.09368"/>
<feComposite in2="hardAlpha" operator="out"/>
<feColorMatrix type="matrix" values="0 0 0 0 0 0 0 0 0 0 0 0 0 0 0 0 0 0 0.1 0"/>
<feBlend mode="normal" in2="BackgroundImageFix" result="effect1_dropShadow_741_7416"/>
<feBlend mode="normal" in="SourceGraphic" in2="effect1_dropShadow_741_7416" result="shape"/>
</filter>
<clipPath id="clip0_741_7416">
<rect x="5" y="1" width="323" height="430" rx="18" fill="white"/>
</clipPath>
</defs>
</svg>
