<svg width="312" height="436" viewBox="0 0 312 436" fill="none" xmlns="http://www.w3.org/2000/svg">
<g filter="url(#filter0_d_801_3460)">
<rect x="12" y="8" width="288" height="412" rx="18" fill="#FBFBFB"/>
<path d="M96.5428 193.687C93.8258 193.687 91.6034 191.481 91.8141 188.772C93.0141 173.343 99.8338 158.776 111.131 147.758C123.622 135.577 140.563 128.734 158.228 128.734C175.892 128.734 192.833 135.577 205.324 147.758C216.622 158.776 223.441 173.343 224.641 188.772C224.852 191.481 222.63 193.687 219.913 193.687L158.228 193.687L96.5428 193.687Z" fill="#ECECEC"/>
<path d="M93.69 178.403C144.202 189.819 194.604 168.665 212.796 156.74C222.954 172.25 226.259 188.052 223.67 194.877C221.081 201.701 92.0836 192.826 91.8844 190.138C91.725 187.987 92.6941 181.988 93.69 178.403Z" fill="#DEDEDE"/>
<ellipse cx="142.658" cy="150.197" rx="2.93358" ry="4.28754" fill="#4F4F4F"/>
<ellipse cx="172.896" cy="150.197" rx="2.93358" ry="4.28754" fill="#4F4F4F"/>
<line x1="63.5" y1="188.736" x2="247.541" y2="188.736" stroke="#4F4F4F" stroke-linecap="round"/>
<rect x="63" y="189.283" width="185.041" height="91.6179" fill="#FBFBFB"/>
<path d="M179.937 180.48C166.165 180.589 145.937 180.733 141.987 180.531C141.689 180.516 141.439 180.809 141.499 181.101C145.239 199.067 138.799 216.071 136.897 222.903C136.825 223.162 137.023 223.411 137.291 223.411H182.397C182.686 223.411 182.887 223.127 182.789 222.856C179.069 212.593 178.798 191.054 180.344 180.948C180.382 180.697 180.191 180.478 179.937 180.48Z" fill="white" stroke="#4F4F4F"/>
<path d="M144.467 209.827C144.7 210.752 146.148 212.159 150.071 210.382C154.975 208.161 157.077 209.271 159.179 210.382C161.281 211.492 164.083 211.491 165.484 210.937C166.885 210.382 166.885 209.271 170.388 209.827C173.19 210.271 174.825 210.012 175.292 209.827" stroke="#DEDEDE" stroke-linecap="round" stroke-linejoin="round"/>
<path d="M145.566 204.322C145.783 205.247 147.128 206.654 150.771 204.877C155.324 202.656 157.276 203.767 159.228 204.877C161.179 205.988 163.781 205.987 165.082 205.432C166.383 204.877 166.383 203.767 169.636 204.322C172.238 204.766 173.756 204.507 174.19 204.322" stroke="#DEDEDE" stroke-linecap="round" stroke-linejoin="round"/>
<path d="M167.586 214.604L167.035 211.301L174.191 176.073L176.393 176.623L169.237 211.852L167.586 214.604Z" fill="#F3F1FF" stroke="#4F4F4F" stroke-linejoin="round"/>
<path d="M128.399 156.742C128.457 157.645 128.187 160.127 126.637 162.835" stroke="#4F4F4F" stroke-linecap="round"/>
<path d="M187.607 156.742C187.548 157.645 187.819 160.127 189.369 162.835" stroke="#4F4F4F" stroke-linecap="round"/>
<path d="M128.047 160.127C137.503 168.025 162.722 179.083 187.954 160.127" stroke="#4F4F4F" stroke-linecap="round"/>
<path d="M140.182 141.341C140.182 140.848 139.935 137.73 142.551 137.73C144.92 137.731 144.682 140.026 144.682 141.341" stroke="#4F4F4F" stroke-linecap="round"/>
<path d="M169.969 141.341C169.969 140.848 169.722 137.73 172.338 137.73C174.707 137.731 174.469 140.026 174.469 141.341" stroke="#4F4F4F" stroke-linecap="round"/>
<path d="M129.224 102.588L123.596 137.81L152.74 129.406L129.224 102.588Z" fill="#FE2070"/>
<path fill-rule="evenodd" clip-rule="evenodd" d="M141.561 116.658L137.516 112.045L125.65 124.949L123.907 135.857L141.561 116.658ZM146.284 122.044L152.739 129.406L134.743 134.595L146.284 122.044ZM129.223 102.588L127.685 112.214L132.793 106.659L129.223 102.588Z" fill="#FDCD0B"/>
<path fill-rule="evenodd" clip-rule="evenodd" d="M130.837 100.935C131.258 101.089 131.474 101.556 131.319 101.976L131.022 102.787L131.806 102.424C132.213 102.236 132.695 102.413 132.884 102.82C133.072 103.226 132.895 103.709 132.488 103.897L131.706 104.259L132.514 104.556C132.934 104.71 133.15 105.177 132.996 105.597C132.841 106.018 132.375 106.234 131.954 106.08L131.144 105.782L131.507 106.566C131.695 106.973 131.518 107.455 131.111 107.644C130.704 107.832 130.222 107.655 130.034 107.248L129.671 106.465L129.374 107.275C129.219 107.695 128.753 107.911 128.332 107.757C127.911 107.602 127.695 107.136 127.85 106.715L128.147 105.906L127.366 106.268C126.959 106.456 126.477 106.279 126.288 105.872C126.1 105.465 126.277 104.983 126.684 104.795L127.467 104.432L126.656 104.134C126.235 103.979 126.019 103.513 126.174 103.092C126.328 102.672 126.795 102.456 127.216 102.61L128.024 102.907L127.663 102.126C127.475 101.719 127.652 101.237 128.059 101.048C128.465 100.86 128.948 101.037 129.136 101.444L129.498 102.226L129.795 101.417C129.95 100.996 130.416 100.78 130.837 100.935Z" fill="#4F4F4F"/>
<path d="M123.713 138.157L126.746 138.186C128.286 138.201 129.729 137.437 130.581 136.155V136.155C131.439 134.864 132.894 134.099 134.443 134.123L136.073 134.148C137.709 134.174 139.279 133.5 140.389 132.296L140.871 131.773C142.254 130.271 144.441 129.82 146.305 130.651V130.651C148.997 131.852 152.122 130.339 152.849 127.482L152.905 127.264" stroke="#4F4F4F" stroke-width="3" stroke-linecap="round"/>
<path d="M175.842 178.825L173.641 178.274L174.742 176.072H175.842V178.825Z" fill="#4F4F4F"/>
<path d="M174.777 194.457C180.803 192.734 186.628 189.671 190.244 180.672L201.291 182.395C195.667 192.926 192.052 195.798 176.987 200.967C174.642 208.779 170.252 207.158 168.349 205.371C162.404 203.38 164.265 199.436 165.939 197.712C165.939 191.892 171.831 193.117 174.777 194.457Z" fill="#DEDEDE"/>
<path d="M172.295 122.753C170.093 117.249 180.221 108.882 187.707 115.047C187.707 109.726 190.46 98.8635 201.469 97.9828C212.478 97.1021 215.964 104.221 216.331 107.891" stroke="#DEDEDE" stroke-linecap="round" stroke-linejoin="round"/>
<path d="M164.604 114.966C166.689 113.81 165.381 108.548 161.377 108.536C162.685 106.865 164.441 102.738 160.999 99.5968C157.557 96.4558 154.649 97.784 153.625 98.8408" stroke="#DEDEDE" stroke-linecap="round" stroke-linejoin="round"/>
<path d="M143.41 215.33C143.66 216.256 145.212 217.662 149.415 215.886C154.669 213.665 156.921 214.775 159.173 215.886C161.425 216.996 164.427 216.995 165.929 216.44C167.43 215.886 167.43 214.775 171.183 215.33C174.185 215.775 175.937 215.515 176.437 215.33" stroke="#DEDEDE" stroke-linecap="round" stroke-linejoin="round"/>
<path d="M102.57 283.266H100.898V288.828H99.3359V283.531H97.7109V296.672H99.3359V290.25H100.898V297.391H102.57V283.266ZM91.0547 293.875H91.9922C93.4844 293.875 95.1016 293.773 97.0078 293.438L96.8359 291.922C95.3516 292.211 94.0234 292.32 92.8047 292.344V284.891H91.0547V293.875ZM115.336 283.266H113.602V297.359H115.336V290.234H117.43V288.781H115.336V283.266ZM104.195 293.5L105.18 294.844C109.875 292.531 111.594 288.883 111.602 284.734H104.961V286.172H109.836C109.492 289.391 107.633 291.781 104.195 293.5ZM129.07 284.484H122.383V291.156H129.07V284.484ZM123.992 297.109H133.602V295.703H125.727V292.578H123.992V297.109ZM124.086 289.781V285.875H127.367V289.781H124.086ZM131.305 293.578H133.039V288.859H135.008V287.406H133.039V283.266H131.305V293.578ZM148.617 290.297H135.727V291.688H148.617V290.297ZM137.305 289.016H147.18V287.609H139.039V285.203H147.055V283.828H137.305V289.016ZM137.32 297.094H147.273V295.688H139.023V292.922H137.32V297.094ZM166.258 294.297H160.648V291.375H158.93V294.297H153.352V295.719H166.258V294.297ZM153.883 290.5L154.539 291.859C156.984 291.516 158.859 290.43 159.789 288.891C160.727 290.43 162.617 291.516 165.055 291.859L165.695 290.5C162.641 290.102 160.805 288.477 160.688 286.719H165.102V285.312H160.648V283.484H158.93V285.312H154.492V286.719H158.906C158.781 288.477 156.945 290.102 153.883 290.5ZM179.336 283.266H177.68V288.797H176.086V283.531H174.492V296.672H176.086V290.188H177.68V297.391H179.336V283.266ZM167.617 294.094H168.57C170.539 294.078 172.016 294.031 173.727 293.688L173.602 292.266C172.164 292.531 170.898 292.609 169.367 292.625V286.344H172.898V284.938H167.617V294.094ZM186.07 285.812V285.656H189.008V284.25H181.336V285.656H184.32V285.828C184.32 287.703 183.125 289.539 180.852 290.281L181.727 291.656C183.43 291.086 184.617 289.906 185.242 288.422C185.859 289.695 186.984 290.703 188.57 291.203L189.398 289.844C187.188 289.164 186.07 287.539 186.07 285.812ZM182.773 294.672C182.773 296.375 184.602 297.375 187.555 297.375C190.484 297.375 192.281 296.375 192.289 294.672C192.281 292.984 190.484 292 187.555 292C184.602 292 182.773 292.984 182.773 294.672ZM184.508 294.672C184.508 293.812 185.617 293.359 187.555 293.359C189.484 293.359 190.57 293.812 190.57 294.672C190.57 295.547 189.484 296.008 187.555 296.016C185.617 296.008 184.508 295.547 184.508 294.672ZM190.414 291.688H192.148V288.078H194.117V286.656H192.148V283.266H190.414V291.688ZM201.258 284.062C198.297 284.062 196.016 285.648 196.023 288.047C196.016 290.477 198.297 292.062 201.258 292.062C204.234 292.062 206.531 290.477 206.523 288.047C206.531 285.648 204.234 284.062 201.258 284.062ZM194.836 295.609H207.742V294.188H194.836V295.609ZM197.695 288.047C197.688 286.484 199.203 285.453 201.258 285.469C203.32 285.453 204.82 286.484 204.82 288.047C204.82 289.648 203.32 290.633 201.258 290.641C199.203 290.633 197.688 289.648 197.695 288.047ZM221.57 294.312H215.945V292.016H220.367V290.594H211.93V288.766H220.039V284.234H210.164V285.641H218.32V287.391H210.195V292.016H214.227V294.312H208.664V295.75H221.57V294.312ZM80.2891 313.234H74.6328V309.969H72.9141V313.234H67.3828V314.641H80.2891V313.234ZM67.7578 308.875L68.5078 310.312C70.8906 309.867 72.8281 308.484 73.7578 306.641C74.6953 308.492 76.6562 309.859 79.0391 310.312L79.7891 308.875C76.8125 308.398 74.6797 306.289 74.6797 304.156V303.125H72.8359V304.156C72.8281 306.281 70.7109 308.398 67.7578 308.875ZM94.0859 308.75H81.2109V310.156H86.7734V311.336C84.2109 311.5 82.7109 312.383 82.7109 313.844C82.7109 315.469 84.5469 316.375 87.6328 316.375C90.6719 316.375 92.5156 315.469 92.5234 313.844C92.5156 312.383 91.0156 311.508 88.4922 311.344V310.156H94.0859V308.75ZM81.8359 306.734L82.4297 308.109C84.9922 307.844 86.8672 306.82 87.6328 305.391C88.3984 306.82 90.2969 307.844 92.8672 308.109L93.4766 306.734C90.8203 306.492 89.1406 305.445 88.8594 304.281H92.9297V302.891H82.3828V304.281H86.4141C86.125 305.438 84.4297 306.492 81.8359 306.734ZM84.4766 313.844C84.4688 313.062 85.5781 312.648 87.6328 312.641C89.6562 312.648 90.7734 313.062 90.7891 313.844C90.7734 314.625 89.6562 315.055 87.6328 315.047C85.5781 315.055 84.4688 314.625 84.4766 313.844ZM106.18 302.281H104.445V312.828H106.18V308.156H108.148V306.719H106.18V302.281ZM95.0547 305.234H103.43V303.844H100.117V302.266H98.3828V303.844H95.0547V305.234ZM95.7734 308.516C95.7734 310.133 97.1875 311.188 99.2422 311.188C101.281 311.188 102.688 310.133 102.695 308.516C102.688 306.891 101.281 305.812 99.2422 305.812C97.1875 305.812 95.7734 306.891 95.7734 308.516ZM97.1328 316.109H106.742V314.703H98.8672V312H97.1328V316.109ZM97.4609 308.516C97.4531 307.656 98.1719 307.156 99.2422 307.156C100.312 307.156 101.039 307.656 101.039 308.516C101.039 309.367 100.312 309.852 99.2422 309.844C98.1719 309.852 97.4531 309.367 97.4609 308.516ZM117.992 306.281V305.094H121.086V303.656H113.117V305.094H116.227V306.281C116.219 308.68 114.828 311.312 112.602 312.344L113.602 313.703C115.25 312.922 116.492 311.297 117.141 309.359C117.789 311.156 119.008 312.633 120.68 313.359L121.633 311.984C119.352 311.031 117.992 308.594 117.992 306.281ZM122.664 316.391H124.414V302.266H122.664V316.391ZM138.258 302.281H136.508V312.484H138.258V302.281ZM126.742 306.734C126.742 308.82 128.406 310.281 130.555 310.281C132.703 310.281 134.359 308.82 134.352 306.734C134.359 304.68 132.703 303.211 130.555 303.203C128.406 303.211 126.742 304.68 126.742 306.734ZM128.445 306.734C128.438 305.516 129.344 304.719 130.555 304.719C131.734 304.719 132.648 305.516 132.648 306.734C132.648 307.984 131.734 308.766 130.555 308.766C129.344 308.766 128.438 307.984 128.445 306.734ZM128.914 316.109H138.648V314.703H130.664V311.453H128.914V316.109ZM146.742 302.484C143.531 302.492 141.648 303.344 141.648 304.906C141.648 306.484 143.531 307.336 146.742 307.344C149.961 307.336 151.828 306.484 151.836 304.906C151.828 303.344 149.961 302.492 146.742 302.484ZM140.32 309.484H153.195V308.094H140.32V309.484ZM141.836 311.719H149.883V312.656H141.852V316.266H151.977V314.938H143.555V313.891H151.586V310.438H141.836V311.719ZM143.477 304.906C143.469 304.18 144.594 303.766 146.742 303.766C148.922 303.766 150.039 304.18 150.039 304.906C150.039 305.688 148.922 306.047 146.742 306.047C144.594 306.047 143.469 305.688 143.477 304.906ZM170.852 313.297H165.242V310.375H163.523V313.297H157.945V314.719H170.852V313.297ZM158.477 309.5L159.133 310.859C161.578 310.516 163.453 309.43 164.383 307.891C165.32 309.43 167.211 310.516 169.648 310.859L170.289 309.5C167.234 309.102 165.398 307.477 165.281 305.719H169.695V304.312H165.242V302.484H163.523V304.312H159.086V305.719H163.5C163.375 307.477 161.539 309.102 158.477 309.5ZM183.93 302.266H182.273V307.797H180.68V302.531H179.086V315.672H180.68V309.188H182.273V316.391H183.93V302.266ZM172.211 313.094H173.164C175.133 313.078 176.609 313.031 178.32 312.688L178.195 311.266C176.758 311.531 175.492 311.609 173.961 311.625V305.344H177.492V303.938H172.211V313.094ZM192.492 304.516H189.914V302.672H188.195V304.516H185.57V305.906H192.492V304.516ZM185.977 309.938C185.961 311.898 187.266 313.266 189.055 313.266C190.852 313.266 192.133 311.898 192.133 309.938C192.133 308.016 190.852 306.648 189.055 306.656C187.266 306.648 185.961 308.016 185.977 309.938ZM187.508 309.938C187.5 308.828 188.141 308.094 189.055 308.094C189.961 308.094 190.602 308.828 190.602 309.938C190.602 311.078 189.961 311.789 189.055 311.781C188.141 311.789 187.5 311.078 187.508 309.938ZM193.086 315.75H194.711V309.484H196.086V316.391H197.742V302.266H196.086V308.078H194.711V302.562H193.086V315.75ZM212.336 313.266H206.711V310.516H210.867V303.203H209.133V305.516H202.586V303.203H200.852V310.516H204.992V313.266H199.43V314.688H212.336V313.266ZM202.586 309.109V306.906H209.133V309.109H202.586ZM217.664 305.969V303.516H215.992V306.047C215.984 308.453 215.078 310.945 213.023 312.188L214.102 313.484C215.43 312.672 216.336 311.234 216.844 309.539C217.312 311.078 218.141 312.391 219.414 313.156L220.367 311.828C218.453 310.625 217.672 308.25 217.664 305.969ZM218.852 308.562H220.867V315.703H222.508V302.516H220.867V307.125H218.852V308.562ZM223.773 316.391H225.445V302.266H223.773V316.391ZM239.992 313.25H237.023V309.641C238.117 308.992 238.781 308 238.773 306.766C238.781 304.516 236.562 303.031 233.508 303.031C230.469 303.031 228.266 304.516 228.273 306.766C228.266 308.016 228.945 309.031 230.07 309.68V313.25H227.086V314.672H239.992V313.25ZM229.977 306.766C229.969 305.297 231.398 304.398 233.508 304.406C235.609 304.398 237.07 305.297 237.07 306.766C237.07 308.211 235.609 309.133 233.508 309.125C231.398 309.133 229.969 308.211 229.977 306.766ZM231.789 313.25V310.312C232.32 310.422 232.898 310.484 233.508 310.484C234.133 310.484 234.719 310.422 235.258 310.305V313.25H231.789ZM243.82 303.688H241.695L241.883 311.672H243.648L243.82 303.688ZM241.555 313.906C241.547 314.578 242.102 315.125 242.773 315.125C243.422 315.125 243.977 314.578 243.977 313.906C243.977 313.25 243.422 312.711 242.773 312.703C242.102 312.711 241.547 313.25 241.555 313.906Z" fill="#4F4F4F"/>
<rect x="12.5" y="8.5" width="287" height="411" rx="17.5" stroke="#D9D9D9"/>
</g>
<defs>
<filter id="filter0_d_801_3460" x="0" y="0" width="312" height="436" filterUnits="userSpaceOnUse" color-interpolation-filters="sRGB">
<feFlood flood-opacity="0" result="BackgroundImageFix"/>
<feColorMatrix in="SourceAlpha" type="matrix" values="0 0 0 0 0 0 0 0 0 0 0 0 0 0 0 0 0 0 127 0" result="hardAlpha"/>
<feOffset dy="4"/>
<feGaussianBlur stdDeviation="6"/>
<feComposite in2="hardAlpha" operator="out"/>
<feColorMatrix type="matrix" values="0 0 0 0 0 0 0 0 0 0 0 0 0 0 0 0 0 0 0.1 0"/>
<feBlend mode="normal" in2="BackgroundImageFix" result="effect1_dropShadow_801_3460"/>
<feBlend mode="normal" in="SourceGraphic" in2="effect1_dropShadow_801_3460" result="shape"/>
</filter>
</defs>
</svg>
