<svg width="323" height="430" viewBox="0 0 323 430" fill="none" xmlns="http://www.w3.org/2000/svg">
<g clip-path="url(#clip0_741_7842)">
<rect width="323" height="430" rx="20.555" fill="#FFF9E0"/>
<path d="M167.031 -38.7227V194.587L264.244 -38.7227H167.031Z" fill="#A3DEFF"/>
<path d="M-45.6295 30.7526L167.413 184.612L83.7605 -77.7437L-45.6295 30.7526Z" fill="#A3DEFF"/>
<path d="M65.2891 452.383L168.58 181.905L-25.5265 417.702L65.2891 452.383Z" fill="#A3DEFF"/>
<path d="M323.787 -1.05294L168.249 189.44L385.82 60.8083L323.787 -1.05294Z" fill="#A3DEFF"/>
<path d="M423.152 167.228L177.966 185.023L417.674 233.689L423.152 167.228Z" fill="#A3DEFF"/>
<path d="M-66.9376 169.777L178.516 185.023L-63.6746 257.323L-66.9376 169.777Z" fill="#A3DEFF"/>
<path d="M380.291 294.23L166.568 180.006L340.19 435.795L380.291 294.23Z" fill="#A3DEFF"/>
<path d="M150.02 441.871L165.209 184.866L229.612 447.947L150.02 441.871Z" fill="#A3DEFF"/>
<path d="M212.107 137.625C198.311 134.332 199.457 124.523 202.657 118.107C202.894 117.632 202.308 117.152 201.946 117.54C198.589 121.146 194.556 127.23 194.99 133.745C195.479 141.079 194.428 145.686 193.656 147.564C193.539 147.849 193.699 148.187 194 148.249L223.413 154.35C223.761 154.422 224.384 154.813 224.734 154.755C226.502 154.46 231.439 151.564 228.996 141.504C226.186 129.934 222.665 127.342 217.452 124.415C217.032 124.179 216.567 124.699 216.816 125.111C223.403 135.996 215.228 137.987 212.107 137.625Z" fill="#FDCD0B" stroke="#FDCD0B" stroke-width="0.456454" stroke-linejoin="round"/>
<path d="M247.025 207.69C247.994 217.935 247.188 223.141 246.277 225.358C246.104 225.779 246.526 226.59 246.978 226.531C261.822 224.586 274.077 195.234 264.371 178.249C257.074 165.479 257.635 152.747 259.11 146.586C259.219 146.131 258.668 145.797 258.351 146.142C250.799 154.389 252.446 168.216 254.329 174.369C256.383 180.379 259.258 193.084 254.329 195.822C250.106 198.168 248.038 192.755 247.292 188.477C247.209 187.997 246.687 187.969 246.626 188.452C246.248 191.444 246.063 197.512 247.025 207.69Z" fill="#FDCD0B" stroke="#FDCD0B" stroke-width="0.456454" stroke-linejoin="round"/>
<path d="M87.2316 157.936C89.0726 170.709 89.0766 176.719 88.5231 179.189C88.4144 179.674 88.9595 180.92 89.4489 181.01C119.831 186.588 128.429 146.636 123.748 141.732C119.928 137.73 117.452 129.923 116.681 126.479C116.675 126.453 116.672 126.427 116.671 126.4C116.18 114.803 112.809 110.066 110.617 108.757C110.301 108.568 110.005 108.878 110.138 109.221C110.959 111.345 111.464 113.509 105.946 123.246C99.7635 134.156 103.33 144.916 105.915 148.986C105.936 149.02 105.953 149.057 105.965 149.095C109.362 159.885 104.595 161.479 101.699 160.921C101.639 160.91 101.582 160.885 101.533 160.85C88.6643 151.922 92.0197 139.376 95.6651 133.541C95.8584 133.232 95.643 132.834 95.2815 132.882C91.0049 133.455 84.4991 138.98 87.2316 157.936Z" fill="#FDCD0B"/>
<path fill-rule="evenodd" clip-rule="evenodd" d="M245.925 230.627C224.919 260.334 180.235 303.695 163.064 315.918C162.903 316.033 162.698 316.014 162.539 315.895C109.226 275.621 83.0894 243.187 72.5268 224.531C67.2657 216.115 64.2148 206.107 64.2148 195.367C64.2148 165.494 87.8186 141.277 116.935 141.277C135.648 141.277 152.084 151.279 161.44 166.357C170.796 151.279 187.232 141.277 205.945 141.277C235.062 141.277 258.665 165.494 258.665 195.367C258.665 201.159 257.778 206.738 256.135 211.97C256.219 212.074 256.252 212.214 256.203 212.36C255.733 213.777 255.095 215.308 254.306 216.939C252.183 221.94 249.346 226.548 245.925 230.627Z" fill="#FF3A3A"/>
<path d="M181.263 277.984C183.104 290.756 183.108 296.766 182.554 299.236C182.446 299.722 182.991 300.968 183.48 301.058C213.862 306.635 222.46 266.683 217.779 261.78C213.959 257.778 211.483 249.97 210.713 246.527C210.707 246.5 210.703 246.474 210.702 246.447C210.212 234.851 206.841 230.113 204.648 228.804C204.333 228.615 204.037 228.926 204.169 229.268C204.991 231.392 205.495 233.557 199.977 243.293C193.795 254.204 197.362 264.963 199.946 269.034C199.967 269.068 199.984 269.104 199.996 269.142C203.394 279.932 198.626 281.526 195.73 280.969C195.671 280.957 195.614 280.932 195.564 280.898C182.696 271.97 186.051 259.424 189.696 253.589C189.89 253.279 189.674 252.881 189.313 252.929C185.036 253.502 178.53 259.027 181.263 277.984Z" fill="#FDCD0B"/>
<path d="M121.887 283.432C90.9887 267.516 81.4947 246.884 80.3023 237.434C80.2493 237.014 80.7689 236.817 81.0662 237.118C99.9291 256.243 102.828 243.309 102.72 240.855C102.101 226.862 107.192 218.219 111.458 212.255C108.315 216.744 114.042 223.073 114.882 226.633C117.74 235.82 114.88 238.045 112.723 241.734C111.687 243.507 108.961 248.047 108.871 259.495C108.81 267.38 116.784 277.103 122.445 282.637C122.826 283.01 122.361 283.676 121.887 283.432Z" fill="#FDCD0B" stroke="#FDCD0B" stroke-width="0.912909" stroke-linecap="round" stroke-linejoin="round"/>
<path d="M126.653 129.636C122.813 127.967 126.186 122.736 128.885 119.701C129.153 119.399 129.3 119.469 129.287 119.872C129.249 121.028 129.619 123.035 130.761 124.844C132.684 127.126 130.852 131.462 126.653 129.636Z" fill="#FDCD0B" stroke="#FDCD0B" stroke-width="0.456454" stroke-linejoin="round"/>
<path d="M60.7204 197.532C56.4099 206.473 63.2678 213.124 67.9065 215.764C68.2384 215.953 68.6347 215.655 68.5879 215.276C68.2602 212.623 68.2331 206.941 70.1067 199.476C72.0777 191.623 67.2575 183.449 63.9994 179.58C63.7312 179.262 63.2575 179.463 63.3131 179.875C63.8032 183.519 65.8975 186.794 60.7204 197.532Z" fill="#FDCD0B" stroke="#FDCD0B" stroke-width="0.456454" stroke-linejoin="round"/>
<path d="M221.177 109.17C216.497 114.737 220.746 120.741 223.456 123.047C226.02 126.441 224.317 117.411 227.184 112.084C229.744 107.329 228.067 101.28 226.552 98.0392C226.376 97.6625 225.884 97.7417 225.853 98.1564C225.674 100.571 226.22 103.17 221.177 109.17Z" fill="#FDCD0B" stroke="#FDCD0B" stroke-width="0.456454" stroke-linejoin="round"/>
<path d="M58.2832 154.349C58.2832 162.172 63.6554 166.795 63.5102 167.801C69.3791 159.697 64.192 156.795 63.5102 151.667C63.1607 149.039 62.4939 146.936 62.3486 144.962C62.2325 146.571 61.429 147.718 61.0418 148.091C58.6923 151.462 58.4351 152.82 58.2832 154.349Z" fill="#FDCD0B" stroke="#FDCD0B" stroke-width="1.14195" stroke-linejoin="round"/>
</g>
<defs>
<clipPath id="clip0_741_7842">
<rect width="323" height="430" rx="20.555" fill="white"/>
</clipPath>
</defs>
</svg>
