<svg width="333" height="439" viewBox="0 0 333 439" fill="none" xmlns="http://www.w3.org/2000/svg">
<g filter="url(#filter0_d_741_7549)">
<g clip-path="url(#clip0_741_7549)">
<rect x="5" y="1" width="323" height="430" rx="18" fill="#FFF7D9"/>
<path d="M294.324 368.37C295.74 342.43 239.409 346.5 219.012 349.79L111.273 392.176C213.581 400.725 293.278 387.531 294.324 368.37Z" fill="#242424"/>
<path d="M231.107 58.864L230.796 51.7098L236.731 55.1362L231.107 58.864Z" fill="#FF8B8B"/>
<path d="M226.082 173.722L230.176 173.019L229.473 168.925L225.379 169.628L226.082 173.722Z" fill="#FDCD0B"/>
<path d="M89.0467 200.81L92.9647 202.189L94.3437 198.27L90.4257 196.892L89.0467 200.81Z" fill="#87D4FF"/>
<path d="M136.19 44.4922L140.283 43.7891L139.58 39.6954L135.486 40.3985L136.19 44.4922Z" fill="#FDCD0B"/>
<path d="M123.75 105.854L124.061 98.7L118.126 102.126L123.75 105.854Z" fill="#FF8B8B"/>
<path d="M205.467 233.693L202.439 231.251L204.881 228.224L207.909 230.666L205.467 233.693Z" fill="#FF8B8B"/>
<path d="M152.076 130.934L150.196 134.638L153.899 136.518L155.78 132.814L152.076 130.934Z" fill="#7ED4EF"/>
<path d="M100.898 193.965L100.587 186.81L106.522 190.237L100.898 193.965Z" fill="#FF8B8B"/>
<path d="M89.0467 200.81L92.9647 202.189L94.3437 198.27L90.4257 196.892L89.0467 200.81Z" fill="#87D4FF"/>
<path d="M107.213 224.927L105.332 228.631L109.036 230.511L110.916 226.807L107.213 224.927Z" fill="#FDCD0B"/>
<path d="M89.0467 200.81L92.9647 202.189L94.3437 198.27L90.4257 196.892L89.0467 200.81Z" fill="#87D4FF"/>
<path d="M107.213 224.927L105.332 228.631L109.036 230.511L110.916 226.807L107.213 224.927Z" fill="#FDCD0B"/>
<path d="M272.965 240.999L270.92 237.384L267.305 239.429L269.349 243.044L272.965 240.999Z" fill="#7ED4EF"/>
<path d="M250.556 252.823L256.687 256.522L250.55 259.57L250.556 252.823Z" fill="#FF8B8B"/>
<path d="M169.301 257.921L173.395 257.218L172.691 253.124L168.598 253.827L169.301 257.921Z" fill="#FDCD0B"/>
<path d="M0.985464 246.399L4.40164 247.601L5.604 244.185L2.18776 242.983L0.985464 246.399Z" fill="#87D4FF"/>
<path d="M79.4064 128.689L83.5 127.986L82.7969 123.892L78.7032 124.595L79.4064 128.689Z" fill="#FDCD0B"/>
<path d="M148.684 317.887L145.656 315.446L148.098 312.418L151.126 314.86L148.684 317.887Z" fill="#FF8B8B"/>
<path d="M107.213 224.927L105.332 228.631L109.036 230.511L110.916 226.807L107.213 224.927Z" fill="#FDCD0B"/>
<path d="M95.4645 255.273L93.5843 258.977L97.288 260.857L99.1682 257.153L95.4645 255.273Z" fill="#FF127C"/>
<path d="M116.279 78.5874L120.045 77.6167L121.016 81.3832L117.25 82.3539L116.279 78.5874Z" fill="#FF8B8B"/>
<path d="M218.668 91.4844L214.574 90.7813L215.277 86.6875L219.371 87.3907L218.668 91.4844Z" fill="#FDCD0B"/>
<path d="M69 372.143V305.663C69 304.078 70.2736 302.788 71.8582 302.767L250.775 300.417C252.489 300.395 253.848 301.858 253.698 303.567L247.769 371.048C247.666 372.212 246.842 373.211 245.727 373.562C129.454 410.117 80.1811 389.296 69.442 373.646C69.1362 373.2 69 372.684 69 372.143Z" fill="#BD0018" stroke="black" stroke-width="1.95804" stroke-linecap="round"/>
<path d="M186.661 250.42C140.481 230.245 124.239 259.852 125.071 273.723C96.7722 267.897 51.8306 288.705 76.7992 320.332C101.768 351.959 272.387 318.667 252.412 297.028C236.432 279.716 201.92 258.743 186.661 250.42Z" fill="#FC0122" stroke="black" stroke-width="1.95804" stroke-linecap="round"/>
<path d="M145.777 289.644C143.204 296.793 145.791 301.306 156.364 303.808" stroke="#BD0018" stroke-width="1.95804" stroke-linecap="round"/>
<path d="M190.888 282.265C184.231 278.741 167.228 283.734 159.559 286.671C158.385 291.762 164.618 295.645 167.881 296.951C197.252 291.077 199.21 286.671 190.888 282.265Z" fill="#BD0018" stroke="#BD0018" stroke-width="1.95804" stroke-linecap="round"/>
<path d="M158.372 201.269C158.372 197.377 161.527 194.222 165.418 194.222C169.31 194.222 172.465 197.377 172.465 201.269V289.553C172.465 293.445 169.31 296.6 165.418 296.6C161.527 296.6 158.372 293.445 158.372 289.553V201.269Z" fill="white" stroke="black" stroke-width="1.95804"/>
<path fill-rule="evenodd" clip-rule="evenodd" d="M160.877 195.827C159.855 196.388 159.162 197.475 159.162 198.723V209.129L171.548 221.77V206.718L160.877 195.827ZM159.162 228.649L171.548 241.29V255.171L159.162 242.53V228.649ZM159.162 262.049V274.688L171.548 287.329V274.69L159.162 262.049Z" fill="#87D4FF"/>
<path d="M166.575 194.713C154.761 193.578 162.029 179.665 164.862 171.69C165.206 170.723 166.162 170.073 166.98 170.692C172.257 174.683 178.752 195.884 166.575 194.713Z" fill="#FCFF55" stroke="black" stroke-width="1.95804" stroke-linecap="round"/>
<path d="M166.96 193.633C160.403 192.989 163.953 185.43 165.723 180.622C166.079 179.655 167.033 179.089 167.723 179.855C170.659 183.116 173.641 194.289 166.96 193.633Z" fill="#F15422"/>
<path d="M155.621 202.638C155.621 195.739 162.354 194.824 165.789 194.824C175.413 195.19 175.084 201.896 175.084 205.102V221.117C175.084 223.58 170.504 224.812 170.504 218.653C170.504 213.725 168.978 214.136 168.215 214.957C167.451 216.189 165.467 217.667 163.635 213.725C161.803 209.783 159.819 212.083 159.056 213.725C156.308 219.638 155.621 216.189 155.621 213.725V202.638Z" fill="white" stroke="black" stroke-width="1.95804"/>
<line x1="175.357" y1="173.118" x2="179.037" y2="170.665" stroke="#222222" stroke-width="1.95804" stroke-linecap="round"/>
<line x1="172.131" y1="167.814" x2="177.273" y2="159.734" stroke="#222222" stroke-width="1.95804" stroke-linecap="round"/>
<path d="M161.609 168.465L153.852 156.427" stroke="#222222" stroke-width="1.95804" stroke-linecap="round"/>
<path d="M158.359 171.945L151.238 168.793" stroke="#222222" stroke-width="1.95804" stroke-linecap="round"/>
<path d="M167.359 164.908L167.278 150.587" stroke="#222222" stroke-width="1.95804" stroke-linecap="round"/>
<path d="M166.682 194.379C168.451 191.282 167.478 185.974 167.124 184.204" stroke="black" stroke-width="1.95804" stroke-linecap="round"/>
<path d="M159.204 291.375C156.96 287.581 154.529 288.53 153.594 289.478C150.683 292.423 150.79 293.745 152.192 295.168C157.1 301.806 166.917 301.332 174.63 298.013C182.343 294.694 179.538 290.426 176.733 289.478C173.928 288.53 172.526 290.426 169.721 292.797C166.917 295.168 162.008 296.116 159.204 291.375Z" fill="white" stroke="black" stroke-width="1.95804" stroke-linecap="round"/>
</g>
</g>
<defs>
<filter id="filter0_d_741_7549" x="0.731891" y="0.146378" width="331.536" height="438.536" filterUnits="userSpaceOnUse" color-interpolation-filters="sRGB">
<feFlood flood-opacity="0" result="BackgroundImageFix"/>
<feColorMatrix in="SourceAlpha" type="matrix" values="0 0 0 0 0 0 0 0 0 0 0 0 0 0 0 0 0 0 127 0" result="hardAlpha"/>
<feOffset dy="3.41449"/>
<feGaussianBlur stdDeviation="2.13405"/>
<feComposite in2="hardAlpha" operator="out"/>
<feColorMatrix type="matrix" values="0 0 0 0 0 0 0 0 0 0 0 0 0 0 0 0 0 0 0.1 0"/>
<feBlend mode="normal" in2="BackgroundImageFix" result="effect1_dropShadow_741_7549"/>
<feBlend mode="normal" in="SourceGraphic" in2="effect1_dropShadow_741_7549" result="shape"/>
</filter>
<clipPath id="clip0_741_7549">
<rect x="5" y="1" width="323" height="430" rx="18" fill="white"/>
</clipPath>
</defs>
</svg>
