<svg width="18" height="18" viewBox="0 0 18 18" fill="none" xmlns="http://www.w3.org/2000/svg">
<mask id="path-1-inside-1_306_860" fill="white">
<path fill-rule="evenodd" clip-rule="evenodd" d="M3 0.0397491C1.34315 0.0397491 0 1.38289 0 3.03975V11.8437C0 13.5006 1.34315 14.8437 3 14.8437H8.52855L10.116 17.4408C10.506 18.0787 11.4325 18.0787 11.8225 17.4408L13.4099 14.8437H15C16.6569 14.8437 18 13.5006 18 11.8437V3.03975C18 1.38289 16.6569 0.0397491 15 0.0397491H3Z"/>
</mask>
<path d="M8.52855 14.8437L9.80839 14.0614L9.36969 13.3437H8.52855V14.8437ZM10.116 17.4408L11.3959 16.6585L11.3959 16.6585L10.116 17.4408ZM11.8225 17.4408L10.5426 16.6585L10.5426 16.6585L11.8225 17.4408ZM13.4099 14.8437V13.3437H12.5688L12.1301 14.0614L13.4099 14.8437ZM1.5 3.03975C1.5 2.21132 2.17157 1.53975 3 1.53975V-1.46025C0.51472 -1.46025 -1.5 0.554464 -1.5 3.03975H1.5ZM1.5 11.8437V3.03975H-1.5V11.8437H1.5ZM3 13.3437C2.17157 13.3437 1.5 12.6722 1.5 11.8437H-1.5C-1.5 14.329 0.514719 16.3437 3 16.3437V13.3437ZM8.52855 13.3437H3V16.3437H8.52855V13.3437ZM11.3959 16.6585L9.80839 14.0614L7.24871 15.626L8.83618 18.2231L11.3959 16.6585ZM10.5426 16.6585C10.7376 16.3395 11.2009 16.3395 11.3959 16.6585L8.83618 18.2231C9.81106 19.818 12.1274 19.8179 13.1023 18.2231L10.5426 16.6585ZM12.1301 14.0614L10.5426 16.6585L13.1023 18.2231L14.6898 15.626L12.1301 14.0614ZM15 13.3437H13.4099V16.3437H15V13.3437ZM16.5 11.8437C16.5 12.6722 15.8284 13.3437 15 13.3437V16.3437C17.4853 16.3437 19.5 14.329 19.5 11.8437H16.5ZM16.5 3.03975V11.8437H19.5V3.03975H16.5ZM15 1.53975C15.8284 1.53975 16.5 2.21132 16.5 3.03975H19.5C19.5 0.554468 17.4853 -1.46025 15 -1.46025V1.53975ZM3 1.53975H15V-1.46025H3V1.53975Z" fill="#767676" mask="url(#path-1-inside-1_306_860)"/>
<line x1="4.75" y1="9.86224" x2="7.25" y2="9.86224" stroke="#767676" stroke-width="1.5" stroke-linecap="round"/>
<line x1="4.75" y1="5.63324" x2="12.25" y2="5.63324" stroke="#767676" stroke-width="1.5" stroke-linecap="round"/>
</svg>
