<svg width="24" height="25" viewBox="0 0 24 25" fill="none" xmlns="http://www.w3.org/2000/svg">
<path d="M19.612 6.39401C19.1722 5.94557 18.65 5.58983 18.0752 5.34712C17.5005 5.10441 16.8844 4.97949 16.2623 4.97949C15.6401 4.97949 15.0241 5.10441 14.4493 5.34712C13.8746 5.58983 13.3524 5.94557 12.9126 6.39401L11.9998 7.32425L11.087 6.39401C10.1986 5.48861 8.99364 4.97996 7.73725 4.97996C6.48085 4.97996 5.27591 5.48861 4.38751 6.39401C3.4991 7.29941 3 8.52739 3 9.80782C3 11.0882 3.4991 12.3162 4.38751 13.2216L5.30029 14.1519L11.9998 19.9795L18.6993 14.1519L19.612 13.2216C20.0521 12.7734 20.4011 12.2412 20.6393 11.6554C20.8774 11.0697 21 10.4419 21 9.80782C21 9.17377 20.8774 8.54594 20.6393 7.96019C20.4011 7.37444 20.0521 6.84224 19.612 6.39401Z" fill="#FF7A7A" stroke="#FF7A7A" stroke-width="1.41176" stroke-linecap="round" stroke-linejoin="round"/>
</svg>
