<svg width="40" height="40" viewBox="0 0 40 40" fill="none" xmlns="http://www.w3.org/2000/svg">
<circle cx="20" cy="20" r="20" fill="#575757"/>
<g clip-path="url(#clip0_306_1068)">
<path d="M20 11.0349C23.206 11.0349 23.5824 11.0483 24.8496 11.1021C26.0215 11.1514 26.655 11.3352 27.079 11.4921C27.6411 11.6983 28.0413 11.9403 28.4605 12.3348C28.8797 12.7292 29.1417 13.1057 29.3561 13.6347C29.5181 14.0336 29.7182 14.6297 29.7706 15.7324C29.8277 16.9247 29.842 17.2788 29.842 20.2955C29.842 23.3121 29.8277 23.6662 29.7706 24.8585C29.7182 25.9612 29.5228 26.5573 29.3561 26.9563C29.137 27.4852 28.8797 27.8617 28.4605 28.2562C28.0413 28.6506 27.6411 28.8971 27.079 29.0989C26.655 29.2513 26.0215 29.4395 24.8496 29.4888C23.5824 29.5426 23.206 29.5561 20 29.5561C16.794 29.5561 16.4176 29.5426 15.1505 29.4888C13.9786 29.4395 13.345 29.2557 12.921 29.0989C12.3589 28.8927 11.9587 28.6506 11.5395 28.2562C11.1203 27.8617 10.8583 27.4852 10.6439 26.9563C10.4819 26.5573 10.2819 25.9612 10.2295 24.8585C10.1723 23.6662 10.158 23.3121 10.158 20.2955C10.158 17.2788 10.1723 16.9247 10.2295 15.7324C10.2819 14.6297 10.4772 14.0336 10.6439 13.6347C10.863 13.1057 11.1203 12.7292 11.5395 12.3348C11.9587 11.9403 12.3589 11.6938 12.921 11.4921C13.345 11.3397 13.9786 11.1514 15.1505 11.1021C16.4176 11.0438 16.7987 11.0349 20 11.0349ZM20 8.99988C16.7416 8.99988 16.3319 9.01333 15.0504 9.06711C13.7737 9.1209 12.902 9.31364 12.1397 9.59155C11.349 9.87842 10.682 10.2684 10.0151 10.8959C9.34816 11.5235 8.93847 12.1555 8.62882 12.8951C8.33347 13.6122 8.12862 14.4325 8.07146 15.6383C8.01429 16.8396 8 17.225 8 20.291C8 23.3569 8.01429 23.7424 8.07146 24.9482C8.12862 26.1494 8.33347 26.9697 8.62882 27.6914C8.9337 28.4355 9.34816 29.063 10.0151 29.6905C10.682 30.3181 11.3537 30.7035 12.1397 30.9949C12.902 31.2728 13.7737 31.4655 15.0552 31.5193C16.3367 31.5731 16.7416 31.5866 20.0048 31.5866C23.268 31.5866 23.6729 31.5731 24.9544 31.5193C26.2311 31.4655 27.1028 31.2728 27.8698 30.9949C28.6606 30.708 29.3275 30.3181 29.9945 29.6905C30.6614 29.063 31.0711 28.431 31.3807 27.6914C31.6761 26.9742 31.8809 26.1539 31.9381 24.9482C31.9953 23.7424 32.0096 23.3614 32.0096 20.291C32.0096 17.2206 31.9953 16.8396 31.9381 15.6338C31.8809 14.4325 31.6761 13.6122 31.3807 12.8906C31.0758 12.1465 30.6614 11.519 29.9945 10.8914C29.3275 10.2639 28.6558 9.87842 27.8698 9.58707C27.1076 9.30916 26.2358 9.11642 24.9544 9.06263C23.6681 9.01333 23.2585 8.99988 20 8.99988Z" fill="white"/>
<path d="M20.0003 14.4948C16.5989 14.4948 13.8359 17.0901 13.8359 20.295C13.8359 23.4999 16.5942 26.0952 20.0003 26.0952C23.4064 26.0952 26.1646 23.4999 26.1646 20.295C26.1646 17.0901 23.4064 14.4948 20.0003 14.4948ZM20.0003 24.0557C17.7899 24.0557 15.9987 22.3703 15.9987 20.2905C15.9987 18.2107 17.7899 16.5253 20.0003 16.5253C22.2107 16.5253 24.0019 18.2107 24.0019 20.2905C24.0019 22.3703 22.2107 24.0557 20.0003 24.0557Z" fill="white"/>
<path d="M26.4074 15.6156C27.202 15.6156 27.8461 15.0096 27.8461 14.2619C27.8461 13.5143 27.202 12.9083 26.4074 12.9083C25.6129 12.9083 24.9688 13.5143 24.9688 14.2619C24.9688 15.0096 25.6129 15.6156 26.4074 15.6156Z" fill="white"/>
</g>
<defs>
<clipPath id="clip0_306_1068">
<rect width="24" height="22.5822" fill="white" transform="translate(8 8.99988)"/>
</clipPath>
</defs>
</svg>
