<svg width="323" height="405" viewBox="0 0 323 405" fill="none" xmlns="http://www.w3.org/2000/svg">
<path d="M12.0006 404.5C5.3732 404.5 -0.0465083 399.119 0.452333 392.511C3.30451 354.727 19.5669 319.05 46.513 292.07C76.2945 262.252 116.687 245.5 158.804 245.5C200.921 245.5 241.314 262.252 271.095 292.07C298.041 319.05 314.304 354.727 317.156 392.511C317.655 399.119 312.235 404.5 305.607 404.5L158.804 404.5L12.0006 404.5Z" fill="#FFF48E"/>
<path d="M181.491 274.5C181.491 272.987 181.267 265.499 188.586 265.5C195.212 265.501 197.272 270.466 197.272 274.5" stroke="#EEE37E" stroke-width="2" stroke-linecap="round"/>
<path d="M124.282 274.5C124.282 272.987 124.058 265.499 131.377 265.5C138.003 265.501 140.063 270.466 140.063 274.5" stroke="#EEE37E" stroke-width="2" stroke-linecap="round"/>
<rect width="110.013" height="71.8352" rx="6.33923" transform="matrix(-0.910802 -0.412844 -0.403498 0.914981 274.439 223.042)" fill="#87E2FF"/>
<path d="M148.972 242.61L193.592 220.405M243.304 285.369L230.107 236.956" stroke="#1FC1F4" stroke-linejoin="round"/>
<path d="M270.6 224.741L210.174 242.04C207.204 242.89 204.046 241.444 202.712 238.624L175.665 181.441" stroke="#1FC1F4" stroke-linejoin="round"/>
<path d="M263.358 262.5C274.207 268.661 267.796 276.5 263.358 279.5L297.879 345.5L254.162 383.203C241.071 349.398 224.637 284.224 217.492 283.5C207.628 282.5 205.137 271.02 210.166 266.932C213.596 264.144 219.252 266.981 220.882 268.661C215.993 263.619 222.917 256.5 228.342 257.5C235.076 258.741 235.32 265.91 235.233 267.151C235.476 264.518 239.257 258.873 245.603 260.092C251.95 261.311 251.994 268.237 252.077 271.207C252.508 263 259.667 260.404 263.358 262.5Z" fill="#FFE370"/>
<path d="M68.0586 20.5C71.197 22.5725 72.9904 26.7174 72.9904 31.5" stroke="white" stroke-width="2" stroke-linecap="round"/>
<mask id="mask0_759_4331" style="mask-type:alpha" maskUnits="userSpaceOnUse" x="0" y="0" width="323" height="405">
<rect y="0.5" width="323" height="404" rx="12" fill="#D9D9D9"/>
</mask>
<g mask="url(#mask0_759_4331)">
<path d="M1.47893 382.5C124.771 402.512 258.408 358.906 302.811 338C316.127 366 324.913 400.536 318.593 412.5C312.272 424.464 -2.45119 411.56 -2.93736 406.847C-3.32629 403.076 -0.000528812 390.5 1.47893 382.5Z" fill="#FFD8F9"/>
<path opacity="0.5" d="M341.76 102.539L337.387 93.4225C331.137 80.3937 313.219 78.8088 304.779 90.5384L302.605 93.5601C295.403 103.571 280.207 102.59 274.351 91.7372L273.338 89.8595C267.463 78.9724 251.844 78.9724 245.969 89.8595V89.8595C240.094 100.747 224.475 100.747 218.6 89.8595L214.038 81.4063" stroke="#7ED4EF" stroke-width="11.5392" stroke-linecap="round"/>
<path opacity="0.5" d="M313.763 -28.6776L300.341 -31.8279C288.262 -34.6628 279.19 -20.9542 286.37 -10.7161L288.089 -8.26498C294.513 0.89625 286.657 13.2288 275.77 11.072L273.315 10.5856C262.644 8.4713 255.421 21.1546 262.563 29.4673V29.4673C269.705 37.7799 262.482 50.4632 251.81 48.3489L240.974 46.2019" stroke="#FFA39A" stroke-width="6.19417" stroke-linecap="round"/>
<g opacity="0.5">
<line x1="261.395" y1="166" x2="261.395" y2="182.482" stroke="#FDE50B" stroke-width="3" stroke-linecap="round"/>
<line x1="1.5" y1="-1.5" x2="9.07633" y2="-1.5" transform="matrix(-0.695167 0.718848 -0.695167 -0.718848 272.301 177.33)" stroke="#FDE50B" stroke-width="3" stroke-linecap="round"/>
<line x1="270.404" y1="191.31" x2="283.028" y2="191.31" stroke="#FDE50B" stroke-width="3" stroke-linecap="round"/>
<line x1="1.5" y1="-1.5" x2="9.07633" y2="-1.5" transform="matrix(0.695167 0.718848 -0.695167 0.718848 265.008 195.832)" stroke="#FDE50B" stroke-width="3" stroke-linecap="round"/>
<line x1="260.662" y1="200.355" x2="260.662" y2="218.262" stroke="#FDE50B" stroke-width="3" stroke-linecap="round"/>
<line x1="1.5" y1="-1.5" x2="7.75429" y2="-1.5" transform="matrix(-0.695167 0.718848 -0.695167 -0.718848 255.852 193.817)" stroke="#FDE50B" stroke-width="3" stroke-linecap="round"/>
<line x1="253.34" y1="190.709" x2="241.176" y2="190.709" stroke="#FDE50B" stroke-width="3" stroke-linecap="round"/>
<line x1="1.5" y1="-1.5" x2="8.45938" y2="-1.5" transform="matrix(-0.645951 -0.763379 0.741519 -0.670932 257.801 185.2)" stroke="#FDE50B" stroke-width="3" stroke-linecap="round"/>
</g>
<ellipse cx="130.693" cy="294" rx="6.41132" ry="8.5" fill="#4F4F4F"/>
<ellipse cx="187.902" cy="294" rx="6.41132" ry="8.5" fill="#4F4F4F"/>
<path d="M56.6958 206.157C58.2944 204.06 60.5612 203.687 61.4948 203.762L61.5318 199.609C59.3179 199.15 56.9202 201.311 55.9981 202.448L56.6958 206.157Z" fill="#FFE2FA"/>
<path d="M55.924 197.046C52.2883 192.276 47.1331 191.427 45.01 191.598L44.9259 182.153C49.9608 181.11 55.4136 186.023 57.5106 188.61L55.924 197.046Z" fill="#DBDAFF"/>
<path d="M71.369 193.54L74.3139 279.52L138.126 246.12L71.369 193.54Z" fill="#FDCD0B"/>
<path fill-rule="evenodd" clip-rule="evenodd" d="M106.394 221.126L94.9084 212.08L73.2386 248.123L74.1508 274.756L106.394 221.126ZM119.801 231.686L138.126 246.12L98.7239 266.743L119.801 231.686ZM71.3691 193.54L72.1738 217.035L81.5015 201.52L71.3691 193.54Z" fill="#FF6C6C"/>
<path fill-rule="evenodd" clip-rule="evenodd" d="M74.3624 188.88C75.4091 189.051 76.1245 190.039 75.9603 191.086L75.6324 193.178L77.287 191.956C78.1454 191.321 79.3454 191.517 79.9672 192.393C80.589 193.268 80.3971 194.492 79.5387 195.127L77.8881 196.346L79.8612 196.668C80.9279 196.842 81.6569 197.848 81.4895 198.916C81.3222 199.984 80.3218 200.708 79.2552 200.534L77.2768 200.212L78.476 201.901C79.0978 202.776 78.9059 204 78.0475 204.635C77.189 205.269 75.9891 205.073 75.3673 204.197L74.1696 202.511L73.8419 204.601C73.6777 205.649 72.696 206.36 71.6493 206.189C70.6026 206.019 69.8873 205.031 70.0515 203.983L70.3789 201.894L68.7301 203.112C67.8716 203.747 66.6717 203.551 66.0499 202.675C65.4281 201.8 65.6199 200.576 66.4784 199.941L68.1312 198.72L66.1488 198.397C65.0821 198.223 64.3531 197.216 64.5205 196.149C64.6878 195.081 65.6882 194.357 66.7548 194.53L68.732 194.853L67.5385 193.172C66.9167 192.296 67.1085 191.072 67.967 190.438C68.8255 189.804 70.0254 190 70.6472 190.875L71.8422 192.558L72.1698 190.468C72.3341 189.42 73.3157 188.709 74.3624 188.88Z" fill="#88EEB8"/>
<path d="M73.6119 283.481L81.1362 282.056C84.4211 281.433 87.1754 279.159 88.4554 276.011V276.011C89.9389 272.363 93.377 269.935 97.2468 269.803L101.992 269.641C106.441 269.489 110.52 267.07 112.851 263.201L113.791 261.64C115.99 257.991 120.104 256.022 124.259 256.63V256.63C130.369 257.524 135.922 252.886 136.268 246.6L136.402 244.165" stroke="#FFE370" stroke-width="7.87195" stroke-linecap="round"/>
<path d="M74.0955 281.119L81.7589 278.657C84.6401 277.731 86.9603 275.532 88.0761 272.669V272.669C89.571 268.834 93.1773 266.287 97.2228 266.21L101.426 266.13C105.745 266.048 109.719 263.699 111.937 259.917L112.539 258.89C114.803 255.029 119.144 252.962 123.498 253.672V253.672C129.379 254.631 134.911 250.544 135.851 244.546L135.995 243.629" stroke="#88EEB8" stroke-width="7.87195" stroke-linecap="round"/>
</g>
</svg>
