<svg width="20" height="20" viewBox="0 0 20 20" fill="none" xmlns="http://www.w3.org/2000/svg">
<path d="M2.5 5L7.83667 9.95337C8.47349 10.5445 9.45757 10.5472 10.0976 9.95957L15.5 5" stroke="#252442" stroke-width="1.5"/>
<path d="M17.5373 12.4715C17.3907 12.322 17.2167 12.2034 17.0251 12.1225C16.8335 12.0416 16.6281 12 16.4208 12C16.2134 12 16.008 12.0416 15.8164 12.1225C15.6249 12.2034 15.4508 12.322 15.3042 12.4715L14.9999 12.7816L14.6957 12.4715C14.3995 12.1697 13.9979 12.0002 13.5791 12.0002C13.1603 12.0002 12.7586 12.1697 12.4625 12.4715C12.1664 12.7733 12 13.1826 12 13.6094C12 14.0363 12.1664 14.4456 12.4625 14.7474L12.7668 15.0575L14.9999 17L17.2331 15.0575L17.5373 14.7474C17.684 14.598 17.8004 14.4206 17.8798 14.2253C17.9591 14.0301 18 13.8208 18 13.6094C18 13.3981 17.9591 13.1888 17.8798 12.9936C17.8004 12.7983 17.684 12.6209 17.5373 12.4715Z" stroke="#252442" stroke-width="1.5" stroke-linecap="round" stroke-linejoin="round"/>
<path fill-rule="evenodd" clip-rule="evenodd" d="M4.22266 2C2.70387 2 1.47266 3.23122 1.47266 4.75V14.112C1.47266 15.6308 2.70387 16.862 4.22266 16.862H9.06445C9.47867 16.862 9.81445 16.5262 9.81445 16.112V16.112C9.81445 15.6978 9.47867 15.362 9.06445 15.362H4.22266C3.5323 15.362 2.97266 14.8024 2.97266 14.112V4.75C2.97266 4.05964 3.5323 3.5 4.22266 3.5H13.5084C14.1988 3.5 14.7584 4.05964 14.7584 4.75V8.68101C14.7584 9.09523 15.0942 9.43101 15.5084 9.43101V9.43101C15.9227 9.43101 16.2584 9.09523 16.2584 8.68101V4.75C16.2584 3.23122 15.0272 2 13.5084 2H4.22266Z" fill="#252442"/>
</svg>
