<svg width="21" height="20" viewBox="0 0 21 20" fill="none" xmlns="http://www.w3.org/2000/svg">
<path d="M17.297 9.06652L10.9839 3.49402C10.8675 3.39061 10.7155 3.33325 10.5577 3.33325C10.4 3.33325 10.248 3.39061 10.1316 3.49402L3.81846 9.06652C3.75493 9.1248 3.70405 9.19483 3.66881 9.2725C3.63358 9.35016 3.61469 9.43389 3.61328 9.51876V16.6089C3.61328 16.7716 3.67979 16.9275 3.79819 17.0425C3.91658 17.1575 4.07716 17.2221 4.24459 17.2221H16.8709C17.0383 17.2221 17.1989 17.1575 17.3173 17.0425C17.4357 16.9275 17.5022 16.7716 17.5022 16.6089V9.51876C17.5008 9.43389 17.4819 9.35016 17.4466 9.2725C17.4114 9.19483 17.3605 9.1248 17.297 9.06652Z" stroke="#252442" stroke-width="1.5" stroke-linecap="round" stroke-linejoin="round"/>
<path d="M13.0133 12.7285C13.0133 12.9431 12.9499 13.1556 12.8267 13.3538C12.7035 13.5521 12.523 13.7322 12.2954 13.8839C12.0678 14.0356 11.7976 14.156 11.5003 14.2381C11.2029 14.3202 10.8842 14.3625 10.5623 14.3625C10.2404 14.3625 9.92173 14.3202 9.62436 14.2381C9.32699 14.156 9.0568 14.0356 8.8292 13.8839C8.60161 13.7322 8.42107 13.5521 8.2979 13.3538C8.17472 13.1556 8.11133 12.9431 8.11133 12.7285" stroke="#252442" stroke-width="1.5" stroke-linecap="round"/>
</svg>
