<svg width="20" height="20" viewBox="0 0 20 20" fill="none" xmlns="http://www.w3.org/2000/svg">
<path d="M16.3772 6.43506H3.39106C3.06506 6.43506 2.80078 6.7287 2.80078 7.09092V9.71438C2.80078 10.0766 3.06506 10.3702 3.39106 10.3702H16.3772C16.7032 10.3702 16.9674 10.0766 16.9674 9.71438V7.09092C16.9674 6.7287 16.7032 6.43506 16.3772 6.43506Z" stroke="white" stroke-width="1.5" stroke-linecap="round" stroke-linejoin="round"/>
<path d="M16.1805 10.3704V16.037C16.1805 16.204 16.1141 16.3642 15.9961 16.4822C15.878 16.6003 15.7178 16.6667 15.5509 16.6667H4.21752C4.05053 16.6667 3.89038 16.6003 3.7723 16.4822C3.65423 16.3642 3.58789 16.204 3.58789 16.037V10.3704" stroke="white" stroke-width="1.5" stroke-linecap="round" stroke-linejoin="round"/>
<path d="Mnan nanL13.2886 5.58562C12.7839 6.08593 11.6925 6.29161 10.8804 6.37616C10.3311 6.43336 9.88464 5.9869 9.94184 5.43759C10.0264 4.62555 10.2321 3.53415 10.7324 3.02941C11.0714 2.69043 11.5311 2.5 12.0105 2.5C12.4899 2.5 12.9496 2.69043 13.2886 3.02941C13.6276 3.36838 13.818 3.82813 13.818 4.30751C13.818 4.7869 13.6276 5.24665 13.2886 5.58562Lnan nanLnan nanZ" stroke="white" stroke-width="1.5" stroke-linecap="round" stroke-linejoin="round"/>
<path d="Mnan nanL6.47863 5.58562C6.98337 6.08593 8.07476 6.29161 8.88681 6.37616C9.43612 6.43336 9.88258 5.9869 9.82538 5.43759C9.74083 4.62555 9.53515 3.53415 9.03484 3.02941C8.69586 2.69043 8.23612 2.5 7.75673 2.5C7.27735 2.5 6.8176 2.69043 6.47863 3.02941C6.13965 3.36838 5.94922 3.82813 5.94922 4.30751C5.94922 4.7869 6.13965 5.24665 6.47863 5.58562Lnan nanLnan nanZ" stroke="white" stroke-width="1.5" stroke-linecap="round" stroke-linejoin="round"/>
</svg>
